<svg xmlns="http://www.w3.org/2000/svg" xmlns:xlink="http://www.w3.org/1999/xlink" width="500" zoomAndPan="magnify" viewBox="0 0 375 374.999991" height="500" preserveAspectRatio="xMidYMid meet" version="1.0"><defs><g/><clipPath id="8f663d3fd4"><path d="M 187.5 0 C 83.945312 0 0 83.945312 0 187.5 C 0 291.054688 83.945312 375 187.5 375 C 291.054688 375 375 291.054688 375 187.5 C 375 83.945312 291.054688 0 187.5 0 " clip-rule="nonzero"/></clipPath><clipPath id="296bd2d832"><path d="M 40.410156 40.410156 L 334.410156 40.410156 L 334.410156 334.410156 L 40.410156 334.410156 Z M 40.410156 40.410156 " clip-rule="nonzero"/></clipPath><clipPath id="10be33c54e"><path d="M 187.410156 40.410156 C 106.222656 40.410156 40.410156 106.222656 40.410156 187.410156 C 40.410156 268.59375 106.222656 334.410156 187.410156 334.410156 C 268.59375 334.410156 334.410156 268.59375 334.410156 187.410156 C 334.410156 106.222656 268.59375 40.410156 187.410156 40.410156 " clip-rule="nonzero"/></clipPath></defs><g clip-path="url(#8f663d3fd4)"><path stroke-linecap="butt" transform="matrix(0.75, 0, 0, 0.75, 0.0000045, -0.000000000000063949)" fill="none" stroke-linejoin="miter" d="M 249.999994 0.000000000000085265 C 111.927078 0.000000000000085265 -0.000006 111.927084 -0.000006 250 C -0.000006 388.072917 111.927078 500.000001 249.999994 500.000001 C 388.072911 500.000001 499.999995 388.072917 499.999995 250 C 499.999995 111.927084 388.072911 0.000000000000085265 249.999994 0.000000000000085265 " stroke="#4c7031" stroke-width="8" stroke-opacity="1" stroke-miterlimit="4"/></g><g fill="#4c7031" fill-opacity="1"><g transform="translate(133.480594, 338.268403)"><g><path d="M -7.015625 -2.75 C -6.472656 -2.738281 -5.890625 -2.609375 -5.265625 -2.359375 C -4.640625 -2.109375 -4.128906 -1.800781 -3.734375 -1.4375 C -3.335938 -1.070312 -3.023438 -0.601562 -2.796875 -0.03125 C -2.304688 1.164062 -2.519531 2.921875 -3.4375 5.234375 C -4.363281 7.535156 -5.410156 8.945312 -6.578125 9.46875 C -7.140625 9.726562 -7.6875 9.847656 -8.21875 9.828125 C -8.757812 9.816406 -9.34375 9.6875 -9.96875 9.4375 C -10.59375 9.1875 -11.101562 8.878906 -11.5 8.515625 C -11.90625 8.160156 -12.226562 7.695312 -12.46875 7.125 C -12.957031 5.9375 -12.738281 4.191406 -11.8125 1.890625 C -10.894531 -0.421875 -9.851562 -1.84375 -8.6875 -2.375 C -8.113281 -2.632812 -7.554688 -2.757812 -7.015625 -2.75 Z M -7.78125 8.5 C -7.332031 8.4375 -6.875 8.101562 -6.40625 7.5 C -5.945312 6.90625 -5.476562 6.019531 -5 4.84375 C -4.53125 3.664062 -4.222656 2.753906 -4.078125 2.109375 C -3.941406 1.460938 -3.929688 0.925781 -4.046875 0.5 C -4.160156 0.0703125 -4.347656 -0.242188 -4.609375 -0.453125 C -4.878906 -0.671875 -5.316406 -0.898438 -5.921875 -1.140625 C -6.523438 -1.378906 -7.039062 -1.476562 -7.46875 -1.4375 C -8.40625 -1.320312 -9.363281 -0.0351562 -10.34375 2.421875 C -11.332031 4.898438 -11.535156 6.515625 -10.953125 7.265625 C -10.679688 7.597656 -10.195312 7.90625 -9.5 8.1875 C -8.800781 8.46875 -8.226562 8.570312 -7.78125 8.5 Z M -7.78125 8.5 "/></g></g></g><g fill="#4c7031" fill-opacity="1"><g transform="translate(123.041484, 334.107706)"><g><path d="M -10.40625 8.84375 C -12.476562 7.851562 -13.046875 6.375 -12.109375 4.40625 C -11.898438 3.976562 -11.65625 3.625 -11.375 3.34375 C -11.09375 3.0625 -10.820312 2.875 -10.5625 2.78125 C -10.050781 2.625 -9.632812 2.585938 -9.3125 2.671875 L -9.125 2.734375 L -9.109375 2.6875 C -9.492188 2.46875 -9.828125 2.101562 -10.109375 1.59375 C -10.265625 1.300781 -10.332031 0.941406 -10.3125 0.515625 C -10.289062 0.0976562 -10.144531 -0.390625 -9.875 -0.953125 C -9.613281 -1.515625 -9.28125 -1.984375 -8.875 -2.359375 C -8.46875 -2.734375 -8.046875 -2.960938 -7.609375 -3.046875 C -6.785156 -3.222656 -5.925781 -3.097656 -5.03125 -2.671875 C -4.125 -2.234375 -3.003906 -1.59375 -1.671875 -0.75 L -4.203125 4.28125 L -6.953125 10.25 C -8.253906 9.789062 -9.40625 9.320312 -10.40625 8.84375 Z M -3.515625 -0.453125 C -4.285156 -0.960938 -5.003906 -1.378906 -5.671875 -1.703125 C -6.347656 -2.023438 -6.882812 -2.0625 -7.28125 -1.8125 C -7.6875 -1.570312 -8.078125 -1.050781 -8.453125 -0.25 C -8.835938 0.539062 -8.929688 1.175781 -8.734375 1.65625 C -8.546875 2.132812 -8.117188 2.535156 -7.453125 2.859375 L -5.5 3.796875 Z M -6 4.828125 C -6.726562 4.472656 -7.414062 4.140625 -8.0625 3.828125 C -8.707031 3.515625 -9.222656 3.453125 -9.609375 3.640625 C -9.992188 3.828125 -10.359375 4.289062 -10.703125 5.03125 C -11.054688 5.769531 -11.171875 6.347656 -11.046875 6.765625 C -10.921875 7.191406 -10.535156 7.554688 -9.890625 7.859375 C -9.273438 8.160156 -8.597656 8.4375 -7.859375 8.6875 Z M -6 4.828125 "/></g></g></g><g fill="#4c7031" fill-opacity="1"><g transform="translate(113.561872, 329.581728)"><g><path d="M -2.90625 -1.640625 L -1.609375 -0.90625 L -4.53125 4.09375 L -7.65625 9.734375 C -8.71875 9.304688 -9.882812 8.734375 -11.15625 8.015625 C -13.425781 6.734375 -13.9375 4.984375 -12.6875 2.765625 C -11.707031 1.023438 -10.359375 0.398438 -8.640625 0.890625 L -8.609375 0.84375 L -8.578125 -4.84375 L -7.03125 -3.96875 L -7.234375 1.5 L -5.34375 2.671875 Z M -5.96875 3.8125 C -6.882812 3.175781 -7.660156 2.675781 -8.296875 2.3125 C -8.941406 1.945312 -9.492188 1.859375 -9.953125 2.046875 C -10.421875 2.234375 -10.882812 2.738281 -11.34375 3.5625 C -12 4.726562 -12.195312 5.539062 -11.9375 6 C -11.78125 6.28125 -11.378906 6.597656 -10.734375 6.953125 C -10.097656 7.316406 -9.316406 7.679688 -8.390625 8.046875 Z M -5.96875 3.8125 "/></g></g></g><g fill="#4c7031" fill-opacity="1"><g transform="translate(104.083171, 324.205462)"><g><path d="M -1.390625 -0.90625 L -0.078125 -0.046875 L -9.625 8.328125 L -11.171875 7.328125 L -7.421875 -4.8125 L -6.078125 -3.9375 L -7.15625 -0.734375 L -3.890625 1.375 Z M -7.59375 0.453125 L -9.796875 6.8125 L -9.71875 6.875 L -4.78125 2.265625 Z M -7.59375 0.453125 "/></g></g></g><g fill="#4c7031" fill-opacity="1"><g transform="translate(96.680999, 319.413637)"><g><path d="M -1.046875 0.34375 L -2.171875 1 C -2.390625 0.53125 -2.710938 0.0195312 -3.140625 -0.53125 C -3.566406 -1.09375 -3.984375 -1.519531 -4.390625 -1.8125 C -4.796875 -2.113281 -5.144531 -2.269531 -5.4375 -2.28125 C -6.03125 -2.3125 -6.582031 -1.976562 -7.09375 -1.28125 C -7.445312 -0.800781 -7.582031 -0.3125 -7.5 0.1875 C -7.425781 0.6875 -7.238281 1.1875 -6.9375 1.6875 C -6.632812 2.195312 -6.425781 2.535156 -6.3125 2.703125 C -6.207031 2.867188 -6.070312 3.125 -5.90625 3.46875 C -5.738281 3.8125 -5.644531 4.09375 -5.625 4.3125 C -5.601562 4.53125 -5.585938 4.785156 -5.578125 5.078125 C -5.566406 5.628906 -5.816406 6.253906 -6.328125 6.953125 C -6.847656 7.660156 -7.535156 8.070312 -8.390625 8.1875 C -9.253906 8.300781 -10.160156 8.015625 -11.109375 7.328125 C -11.828125 6.804688 -12.523438 6.144531 -13.203125 5.34375 L -12.25 4.453125 C -11.582031 5.191406 -10.953125 5.773438 -10.359375 6.203125 C -9.765625 6.640625 -9.316406 6.878906 -9.015625 6.921875 C -8.535156 6.972656 -8.066406 6.691406 -7.609375 6.078125 C -7.304688 5.648438 -7.175781 5.179688 -7.21875 4.671875 C -7.269531 4.304688 -7.453125 3.835938 -7.765625 3.265625 C -7.859375 3.117188 -8.019531 2.859375 -8.25 2.484375 C -8.488281 2.117188 -8.671875 1.789062 -8.796875 1.5 C -8.921875 1.207031 -9.023438 0.867188 -9.109375 0.484375 C -9.296875 -0.316406 -9.070312 -1.148438 -8.4375 -2.015625 C -7.8125 -2.878906 -7.03125 -3.375 -6.09375 -3.5 C -5.15625 -3.632812 -4.242188 -3.378906 -3.359375 -2.734375 C -2.890625 -2.398438 -2.460938 -1.972656 -2.078125 -1.453125 C -1.691406 -0.941406 -1.421875 -0.507812 -1.265625 -0.15625 Z M -1.046875 0.34375 "/></g></g></g><g fill="#4c7031" fill-opacity="1"><g transform="translate(89.583061, 314.181737)"><g/></g></g><g fill="#4c7031" fill-opacity="1"><g transform="translate(86.590849, 311.875027)"><g><path d="M -9.1875 -0.5 L -6.09375 2.140625 L -2.53125 -2.171875 L -1.40625 -1.203125 L -9.359375 8.09375 L -13.921875 4.1875 L -13.0625 3.171875 L -9.640625 6.15625 L -6.890625 3.078125 L -10 0.453125 Z M -9.1875 -0.5 "/></g></g></g><g fill="#4c7031" fill-opacity="1"><g transform="translate(80.088827, 306.373856)"><g><path d="M -14.484375 3 L -15.546875 1.953125 L -10.84375 -2.90625 C -9.34375 -4.445312 -8.070312 -5.285156 -7.03125 -5.421875 C -6 -5.566406 -4.992188 -5.164062 -4.015625 -4.21875 C -3.046875 -3.28125 -2.613281 -2.289062 -2.71875 -1.25 C -2.820312 -0.207031 -3.59375 1.050781 -5.03125 2.53125 L -9.84375 7.5 L -10.90625 6.46875 L -6.421875 1.84375 C -5.421875 0.8125 -4.75 0.0195312 -4.40625 -0.53125 C -4.0625 -1.09375 -3.929688 -1.554688 -4.015625 -1.921875 C -4.097656 -2.296875 -4.351562 -2.6875 -4.78125 -3.09375 C -5.207031 -3.507812 -5.535156 -3.785156 -5.765625 -3.921875 C -6.003906 -4.054688 -6.257812 -4.132812 -6.53125 -4.15625 C -6.800781 -4.1875 -7.09375 -4.101562 -7.40625 -3.90625 C -8.0625 -3.488281 -8.925781 -2.726562 -10 -1.625 Z M -14.484375 3 "/></g></g></g><g fill="#4c7031" fill-opacity="1"><g transform="translate(71.959137, 298.508834)"><g><path d="M -10.359375 6.78125 L -11.734375 5.25 L -6.890625 -5.640625 L -6.953125 -5.703125 L -14.875 1.71875 L -15.84375 0.640625 L -6.71875 -7.515625 L -5.34375 -5.984375 L -10.1875 4.875 L -10.140625 4.9375 L -2.203125 -2.453125 L -1.234375 -1.375 Z M -10.359375 6.78125 "/></g></g></g><g fill="#4c7031" fill-opacity="1"><g transform="translate(64.244998, 289.814068)"><g><path d="M -1.140625 -1.453125 L -10.765625 6.09375 L -14.46875 1.359375 L -13.4375 0.546875 L -10.671875 4.140625 L -7.390625 1.671875 L -9.984375 -1.640625 L -9 -2.40625 L -6.40625 0.90625 L -3.0625 -1.828125 L -5.890625 -5.375 L -4.84375 -6.1875 Z M -1.140625 -1.453125 "/></g></g></g><g fill="#4c7031" fill-opacity="1"><g transform="translate(58.798735, 282.939689)"><g><path d="M -1.890625 -2.75 L -1.046875 -1.515625 L -5.859375 1.703125 L -11.15625 5.390625 C -11.925781 4.546875 -12.722656 3.519531 -13.546875 2.3125 C -15.023438 0.175781 -14.71875 -1.609375 -12.625 -3.046875 C -10.976562 -4.179688 -9.488281 -4.15625 -8.15625 -2.96875 L -8.109375 -3 L -5.59375 -8.109375 L -4.59375 -6.65625 L -7.15625 -1.8125 L -5.96875 0.0625 Z M -7.046875 0.828125 C -7.578125 -0.160156 -8.050781 -0.957031 -8.46875 -1.5625 C -8.894531 -2.175781 -9.351562 -2.492188 -9.84375 -2.515625 C -10.34375 -2.546875 -10.984375 -2.289062 -11.765625 -1.75 C -12.859375 -1 -13.382812 -0.359375 -13.34375 0.171875 C -13.332031 0.492188 -13.117188 0.957031 -12.703125 1.5625 C -12.285156 2.164062 -11.742188 2.832031 -11.078125 3.5625 Z M -7.046875 0.828125 "/></g></g></g><g fill="#4c7031" fill-opacity="1"><g transform="translate(52.631165, 273.95597)"><g><path d="M -0.859375 -1.421875 L -0.046875 -0.078125 L -12.3125 3.28125 L -13.265625 1.6875 L -4.5625 -7.578125 L -3.734375 -6.203125 L -6.125 -3.796875 L -4.109375 -0.46875 Z M -7.03125 -2.921875 L -11.796875 1.828125 L -11.75 1.921875 L -5.3125 -0.046875 Z M -7.03125 -2.921875 "/></g></g></g><g fill="#4c7031" fill-opacity="1"><g transform="translate(48.062362, 266.451937)"><g><path d="M -1.546875 -2.96875 L -0.859375 -1.640625 L -6.03125 0.96875 L -11.71875 3.984375 C -12.382812 3.046875 -13.054688 1.929688 -13.734375 0.640625 C -14.941406 -1.671875 -14.414062 -3.414062 -12.15625 -4.59375 C -10.382812 -5.519531 -8.90625 -5.304688 -7.71875 -3.953125 L -7.671875 -3.984375 L -4.546875 -8.734375 L -3.734375 -7.15625 L -6.890625 -2.6875 L -5.9375 -0.671875 Z M -7.109375 -0.0625 C -7.515625 -1.09375 -7.882812 -1.9375 -8.21875 -2.59375 C -8.5625 -3.25 -8.972656 -3.617188 -9.453125 -3.703125 C -9.941406 -3.796875 -10.609375 -3.625 -11.453125 -3.1875 C -12.628906 -2.570312 -13.238281 -2 -13.28125 -1.46875 C -13.300781 -1.144531 -13.140625 -0.65625 -12.796875 0 C -12.460938 0.644531 -12.003906 1.367188 -11.421875 2.171875 Z M -7.109375 -0.0625 "/></g></g></g><g fill="#4c7031" fill-opacity="1"><g transform="translate(43.059752, 256.713343)"><g><path d="M -7.5625 -0.09375 L -1.390625 -3.03125 L -0.75 -1.671875 L -5.875 0.59375 L -11.875 3.4375 L -12.5 2.078125 Z M -7.5625 -0.09375 "/></g></g></g><g fill="#4c7031" fill-opacity="1"><g transform="translate(40.930261, 252.193973)"><g><path d="M -0.625 -1.53125 L -0.03125 -0.09375 L -12.671875 1.34375 L -13.359375 -0.359375 L -3.34375 -8.1875 L -2.734375 -6.71875 L -5.453125 -4.703125 L -3.984375 -1.09375 Z M -6.5 -3.96875 L -11.9375 -0.015625 L -11.90625 0.09375 L -5.234375 -0.875 Z M -6.5 -3.96875 "/></g></g></g><g fill="#4c7031" fill-opacity="1"><g transform="translate(37.589696, 244.034314)"><g><path d="M -1.046875 -0.3125 L -2.359375 -0.40625 C -2.273438 -0.925781 -2.25 -1.535156 -2.28125 -2.234375 C -2.3125 -2.929688 -2.40625 -3.515625 -2.5625 -3.984375 C -2.726562 -4.460938 -2.925781 -4.796875 -3.15625 -4.984375 C -3.632812 -5.335938 -4.285156 -5.375 -5.109375 -5.09375 C -5.671875 -4.894531 -6.054688 -4.566406 -6.265625 -4.109375 C -6.484375 -3.660156 -6.613281 -3.144531 -6.65625 -2.5625 C -6.695312 -1.976562 -6.722656 -1.585938 -6.734375 -1.390625 C -6.742188 -1.191406 -6.773438 -0.898438 -6.828125 -0.515625 C -6.890625 -0.140625 -6.972656 0.140625 -7.078125 0.328125 C -7.179688 0.515625 -7.316406 0.734375 -7.484375 0.984375 C -7.785156 1.441406 -8.347656 1.8125 -9.171875 2.09375 C -9.992188 2.382812 -10.789062 2.328125 -11.5625 1.921875 C -12.34375 1.523438 -12.921875 0.773438 -13.296875 -0.328125 C -13.585938 -1.171875 -13.78125 -2.113281 -13.875 -3.15625 L -12.59375 -3.328125 C -12.46875 -2.335938 -12.285156 -1.492188 -12.046875 -0.796875 C -11.804688 -0.0976562 -11.578125 0.34375 -11.359375 0.53125 C -10.992188 0.851562 -10.445312 0.882812 -9.71875 0.625 C -9.226562 0.457031 -8.851562 0.15625 -8.59375 -0.28125 C -8.414062 -0.613281 -8.300781 -1.109375 -8.25 -1.765625 C -8.226562 -1.929688 -8.207031 -2.234375 -8.1875 -2.671875 C -8.175781 -3.109375 -8.140625 -3.476562 -8.078125 -3.78125 C -8.015625 -4.09375 -7.910156 -4.429688 -7.765625 -4.796875 C -7.460938 -5.566406 -6.804688 -6.125 -5.796875 -6.46875 C -4.785156 -6.820312 -3.851562 -6.785156 -3 -6.359375 C -2.15625 -5.929688 -1.554688 -5.203125 -1.203125 -4.171875 C -1.015625 -3.628906 -0.90625 -3.035156 -0.875 -2.390625 C -0.851562 -1.742188 -0.878906 -1.234375 -0.953125 -0.859375 Z M -1.046875 -0.3125 "/></g></g></g><g fill="#4c7031" fill-opacity="1"><g transform="translate(34.750015, 235.687657)"><g/></g></g><g fill="#4c7031" fill-opacity="1"><g transform="translate(33.597453, 232.10937)"><g><path d="M -12.25 -2.984375 C -11.957031 -1.847656 -11.628906 -1.1875 -11.265625 -1 C -10.410156 -0.601562 -8.8125 -0.707031 -6.46875 -1.3125 C -5.351562 -1.59375 -4.441406 -1.9375 -3.734375 -2.34375 C -3.023438 -2.75 -2.570312 -3.125 -2.375 -3.46875 C -2.175781 -3.820312 -2.144531 -4.273438 -2.28125 -4.828125 C -2.425781 -5.390625 -2.648438 -5.921875 -2.953125 -6.421875 C -3.253906 -6.929688 -3.519531 -7.316406 -3.75 -7.578125 L -4.109375 -7.984375 L -3.109375 -8.78125 C -3.003906 -8.6875 -2.867188 -8.550781 -2.703125 -8.375 C -2.535156 -8.195312 -2.269531 -7.816406 -1.90625 -7.234375 C -1.550781 -6.648438 -1.289062 -6.035156 -1.125 -5.390625 C -0.425781 -2.648438 -2.085938 -0.765625 -6.109375 0.265625 C -8.953125 0.992188 -10.960938 0.875 -12.140625 -0.09375 C -12.503906 -0.40625 -12.789062 -0.753906 -13 -1.140625 C -13.207031 -1.523438 -13.414062 -2.140625 -13.625 -2.984375 C -13.84375 -3.835938 -13.960938 -4.664062 -13.984375 -5.46875 L -12.703125 -5.609375 C -12.566406 -4.523438 -12.414062 -3.648438 -12.25 -2.984375 Z M -12.25 -2.984375 "/></g></g></g><g fill="#4c7031" fill-opacity="1"><g transform="translate(31.131227, 222.42458)"><g><path d="M -0.3125 -1.625 L -0.015625 -0.09375 L -12.6875 -1.15625 L -13.046875 -2.96875 L -1.6875 -8.6875 L -1.375 -7.125 L -4.4375 -5.65625 L -3.703125 -1.84375 Z M -5.609375 -5.15625 L -11.703125 -2.328125 L -11.6875 -2.21875 L -4.96875 -1.875 Z M -5.609375 -5.15625 "/></g></g></g><g fill="#4c7031" fill-opacity="1"><g transform="translate(29.367166, 213.85005)"><g><path d="M -4.109375 -7.390625 L -3.90625 -5.71875 L -11.4375 -2.0625 L -11.421875 -1.953125 L -0.390625 -3.21875 L -0.21875 -1.765625 L -12.40625 -0.640625 L -12.671875 -2.8125 L -5.140625 -6.359375 L -5.15625 -6.453125 L -13.3125 -8.046875 L -13.578125 -10.21875 L -1.484375 -12.109375 L -1.296875 -10.640625 L -12.296875 -9.203125 L -12.296875 -9.109375 Z M -4.109375 -7.390625 "/></g></g></g><g fill="#4c7031" fill-opacity="1"><g transform="translate(27.789115, 200.290151)"><g><path d="M -0.09375 -1.84375 L -12.3125 -1.21875 L -12.625 -7.21875 L -11.3125 -7.28125 L -11.125 -2.765625 L -7 -2.875 L -7.21875 -7.0625 L -5.984375 -7.140625 L -5.765625 -2.953125 L -1.453125 -3.265625 L -1.734375 -7.78125 L -0.40625 -7.84375 Z M -0.09375 -1.84375 "/></g></g></g><g fill="#4c7031" fill-opacity="1"><g transform="translate(27.343239, 191.488974)"><g><path d="M 0 -1.84375 L -12.234375 -1.84375 L -12.234375 -3.328125 L -1.328125 -3.234375 L -1.359375 -7.65625 L 0 -7.65625 Z M 0 -1.84375 "/></g></g></g><g fill="#4c7031" fill-opacity="1"><g transform="translate(27.362286, 183.819727)"><g><path d="M -6.703125 -3.515625 L 0.125 -3.34375 L 0.09375 -1.84375 L -5.515625 -2.140625 L -12.140625 -2.328125 L -12.09375 -3.828125 Z M -6.703125 -3.515625 "/></g></g></g><g fill="#4c7031" fill-opacity="1"><g transform="translate(27.512185, 178.826121)"><g><path d="M 0.140625 -1.65625 L 0 -0.09375 L -11.890625 -4.546875 L -11.75 -6.390625 L 0.734375 -8.8125 L 0.59375 -7.21875 L -2.734375 -6.65625 L -3.0625 -2.765625 Z M -4 -6.484375 L -10.640625 -5.40625 L -10.65625 -5.296875 L -4.265625 -3.140625 Z M -4 -6.484375 "/></g></g></g><g fill="#4c7031" fill-opacity="1"><g transform="translate(28.287924, 169.973726)"><g/></g></g><g fill="#4c7031" fill-opacity="1"><g transform="translate(28.744383, 166.178712)"><g><path d="M -4.953125 -1.578125 L -6.1875 -1.765625 L -5.578125 -5.75 L -4.34375 -5.5625 Z M -4.953125 -1.578125 "/></g></g></g><g fill="#4c7031" fill-opacity="1"><g transform="translate(29.582391, 160.722788)"><g/></g></g><g fill="#4c7031" fill-opacity="1"><g transform="translate(30.166641, 157.023915)"><g><path d="M 1.65625 -7.359375 C 1.726562 -6.828125 1.6875 -6.234375 1.53125 -5.578125 C 1.382812 -4.921875 1.160156 -4.367188 0.859375 -3.921875 C 0.566406 -3.472656 0.148438 -3.09375 -0.390625 -2.78125 C -1.503906 -2.113281 -3.273438 -2.0625 -5.703125 -2.625 C -8.117188 -3.175781 -9.664062 -3.992188 -10.34375 -5.078125 C -10.6875 -5.597656 -10.890625 -6.125 -10.953125 -6.65625 C -11.023438 -7.1875 -10.984375 -7.78125 -10.828125 -8.4375 C -10.679688 -9.09375 -10.457031 -9.644531 -10.15625 -10.09375 C -9.863281 -10.539062 -9.453125 -10.925781 -8.921875 -11.25 C -7.828125 -11.90625 -6.070312 -11.957031 -3.65625 -11.40625 C -1.226562 -10.84375 0.332031 -10.023438 1.03125 -8.953125 C 1.382812 -8.421875 1.59375 -7.890625 1.65625 -7.359375 Z M -9.59375 -6.390625 C -9.46875 -5.960938 -9.070312 -5.5625 -8.40625 -5.1875 C -7.738281 -4.820312 -6.785156 -4.492188 -5.546875 -4.203125 C -4.316406 -3.921875 -3.367188 -3.757812 -2.703125 -3.71875 C -2.035156 -3.675781 -1.503906 -3.742188 -1.109375 -3.921875 C -0.710938 -4.097656 -0.421875 -4.332031 -0.234375 -4.625 C -0.0546875 -4.925781 0.101562 -5.390625 0.25 -6.015625 C 0.394531 -6.648438 0.40625 -7.179688 0.28125 -7.609375 C 0.03125 -8.523438 -1.382812 -9.28125 -3.96875 -9.875 C -6.5625 -10.476562 -8.179688 -10.429688 -8.828125 -9.734375 C -9.128906 -9.410156 -9.363281 -8.878906 -9.53125 -8.140625 C -9.707031 -7.410156 -9.726562 -6.828125 -9.59375 -6.390625 Z M -9.59375 -6.390625 "/></g></g></g><g fill="#4c7031" fill-opacity="1"><g transform="translate(32.705438, 146.076504)"><g><path d="M -10.296875 -8.953125 C -9.628906 -11.148438 -8.253906 -11.9375 -6.171875 -11.3125 C -5.710938 -11.164062 -5.320312 -10.972656 -5 -10.734375 C -4.6875 -10.492188 -4.46875 -10.253906 -4.34375 -10.015625 C -4.113281 -9.546875 -4.015625 -9.144531 -4.046875 -8.8125 L -4.078125 -8.59375 L -4.03125 -8.59375 C -3.875 -9.019531 -3.5625 -9.410156 -3.09375 -9.765625 C -2.832031 -9.953125 -2.488281 -10.066406 -2.0625 -10.109375 C -1.644531 -10.160156 -1.140625 -10.09375 -0.546875 -9.90625 C 0.046875 -9.726562 0.5625 -9.46875 1 -9.125 C 1.4375 -8.78125 1.722656 -8.394531 1.859375 -7.96875 C 2.160156 -7.1875 2.164062 -6.320312 1.875 -5.375 C 1.582031 -4.40625 1.117188 -3.207031 0.484375 -1.78125 L -4.875 -3.515625 L -11.1875 -5.328125 C -10.914062 -6.671875 -10.617188 -7.878906 -10.296875 -8.953125 Z M -0.078125 -3.546875 C 0.304688 -4.378906 0.609375 -5.148438 0.828125 -5.859375 C 1.046875 -6.578125 1.003906 -7.113281 0.703125 -7.46875 C 0.398438 -7.832031 -0.171875 -8.144531 -1.015625 -8.40625 C -1.867188 -8.664062 -2.515625 -8.664062 -2.953125 -8.40625 C -3.398438 -8.144531 -3.726562 -7.660156 -3.9375 -6.953125 L -4.578125 -4.875 Z M -5.6875 -5.21875 C -5.445312 -5.96875 -5.21875 -6.6875 -5 -7.375 C -4.789062 -8.0625 -4.804688 -8.582031 -5.046875 -8.9375 C -5.285156 -9.289062 -5.796875 -9.585938 -6.578125 -9.828125 C -7.359375 -10.066406 -7.945312 -10.085938 -8.34375 -9.890625 C -8.75 -9.703125 -9.054688 -9.269531 -9.265625 -8.59375 C -9.460938 -7.9375 -9.632812 -7.222656 -9.78125 -6.453125 Z M -5.6875 -5.21875 "/></g></g></g><g fill="#4c7031" fill-opacity="1"><g transform="translate(35.749809, 136.022795)"><g><path d="M 1.1875 -3.125 L 0.65625 -1.71875 L -4.734375 -3.875 L -10.765625 -6.109375 C -10.503906 -7.222656 -10.117188 -8.460938 -9.609375 -9.828125 C -8.679688 -12.265625 -7.03125 -13.03125 -4.65625 -12.125 C -2.78125 -11.414062 -1.957031 -10.175781 -2.1875 -8.40625 L -2.125 -8.390625 L 3.484375 -9.203125 L 2.859375 -7.546875 L -2.578125 -6.921875 L -3.4375 -4.875 Z M -4.671875 -5.328125 C -4.179688 -6.316406 -3.804688 -7.15625 -3.546875 -7.84375 C -3.285156 -8.539062 -3.28125 -9.101562 -3.53125 -9.53125 C -3.789062 -9.957031 -4.363281 -10.335938 -5.25 -10.671875 C -6.5 -11.140625 -7.328125 -11.210938 -7.734375 -10.890625 C -7.984375 -10.691406 -8.238281 -10.25 -8.5 -9.5625 C -8.757812 -8.875 -9.003906 -8.050781 -9.234375 -7.09375 Z M -4.671875 -5.328125 "/></g></g></g><g fill="#4c7031" fill-opacity="1"><g transform="translate(39.634453, 125.842247)"><g><path d="M 0.6875 -1.515625 L 0.03125 -0.078125 L -9.703125 -8.265625 L -8.9375 -9.9375 L 3.640625 -8.0625 L 2.984375 -6.609375 L -0.34375 -7.1875 L -1.953125 -3.640625 Z M -1.59375 -7.4375 L -8.203125 -8.65625 L -8.25 -8.5625 L -2.96875 -4.390625 Z M -1.59375 -7.4375 "/></g></g></g><g fill="#4c7031" fill-opacity="1"><g transform="translate(43.25356, 117.803754)"><g><path d="M -0.5 -0.96875 L -1.328125 -2 C -0.898438 -2.289062 -0.441406 -2.6875 0.046875 -3.1875 C 0.535156 -3.695312 0.894531 -4.171875 1.125 -4.609375 C 1.351562 -5.054688 1.457031 -5.425781 1.4375 -5.71875 C 1.363281 -6.3125 0.945312 -6.804688 0.1875 -7.203125 C -0.34375 -7.472656 -0.847656 -7.53125 -1.328125 -7.375 C -1.804688 -7.226562 -2.269531 -6.96875 -2.71875 -6.59375 C -3.175781 -6.21875 -3.476562 -5.960938 -3.625 -5.828125 C -3.78125 -5.703125 -4.015625 -5.53125 -4.328125 -5.3125 C -4.648438 -5.09375 -4.910156 -4.957031 -5.109375 -4.90625 C -5.316406 -4.851562 -5.566406 -4.800781 -5.859375 -4.75 C -6.398438 -4.65625 -7.054688 -4.804688 -7.828125 -5.203125 C -8.597656 -5.609375 -9.101562 -6.226562 -9.34375 -7.0625 C -9.59375 -7.90625 -9.453125 -8.84375 -8.921875 -9.875 C -8.503906 -10.675781 -7.945312 -11.460938 -7.25 -12.234375 L -6.25 -11.4375 C -6.882812 -10.65625 -7.367188 -9.9375 -7.703125 -9.28125 C -8.046875 -8.632812 -8.21875 -8.164062 -8.21875 -7.875 C -8.1875 -7.382812 -7.828125 -6.960938 -7.140625 -6.609375 C -6.679688 -6.367188 -6.203125 -6.3125 -5.703125 -6.4375 C -5.347656 -6.53125 -4.910156 -6.785156 -4.390625 -7.203125 C -4.265625 -7.304688 -4.035156 -7.5 -3.703125 -7.78125 C -3.367188 -8.0625 -3.070312 -8.285156 -2.8125 -8.453125 C -2.550781 -8.628906 -2.234375 -8.789062 -1.859375 -8.9375 C -1.085938 -9.238281 -0.226562 -9.144531 0.71875 -8.65625 C 1.664062 -8.164062 2.273438 -7.460938 2.546875 -6.546875 C 2.816406 -5.640625 2.703125 -4.703125 2.203125 -3.734375 C 1.929688 -3.222656 1.570312 -2.738281 1.125 -2.28125 C 0.675781 -1.820312 0.289062 -1.488281 -0.03125 -1.28125 Z M -0.5 -0.96875 "/></g></g></g><g fill="#4c7031" fill-opacity="1"><g transform="translate(49.18473, 106.691289)"><g><path d="M -0.890625 -9.15625 L -3.046875 -5.703125 L 1.765625 -2.828125 L 0.96875 -1.5625 L -9.421875 -8.03125 L -6.234375 -13.140625 L -5.109375 -12.4375 L -7.546875 -8.609375 L -4.09375 -6.359375 L -1.953125 -9.8125 Z M -0.890625 -9.15625 "/></g></g></g><g fill="#4c7031" fill-opacity="1"><g transform="translate(53.643888, 99.432113)"><g><path d="M -5.140625 -13.859375 L -4.28125 -15.078125 L 1.234375 -11.15625 C 2.984375 -9.914062 4.003906 -8.789062 4.296875 -7.78125 C 4.597656 -6.769531 4.351562 -5.707031 3.5625 -4.59375 C 2.769531 -3.488281 1.851562 -2.910156 0.8125 -2.859375 C -0.226562 -2.804688 -1.585938 -3.378906 -3.265625 -4.578125 L -8.90625 -8.59375 L -8.03125 -9.796875 L -2.78125 -6.0625 C -1.613281 -5.226562 -0.726562 -4.679688 -0.125 -4.421875 C 0.46875 -4.171875 0.941406 -4.113281 1.296875 -4.25 C 1.648438 -4.394531 2 -4.707031 2.34375 -5.1875 C 2.6875 -5.675781 2.90625 -6.046875 3 -6.296875 C 3.101562 -6.546875 3.148438 -6.804688 3.140625 -7.078125 C 3.128906 -7.347656 2.992188 -7.628906 2.734375 -7.921875 C 2.234375 -8.492188 1.359375 -9.226562 0.109375 -10.125 Z M -5.140625 -13.859375 "/></g></g></g><g fill="#4c7031" fill-opacity="1"><g transform="translate(60.192428, 90.209601)"><g><path d="M -8.265625 -9.21875 L -6.953125 -10.8125 L 4.53125 -7.671875 L 4.578125 -7.75 L -3.9375 -14.453125 L -3.015625 -15.5625 L 6.421875 -7.765625 L 5.109375 -6.171875 L -6.359375 -9.328125 L -6.40625 -9.265625 L 2.09375 -2.546875 L 1.171875 -1.421875 Z M -8.265625 -9.21875 "/></g></g></g><g fill="#4c7031" fill-opacity="1"><g transform="translate(67.625083, 81.271354)"><g><path d="M 1.265625 -1.34375 L -7.65625 -9.71875 L -3.546875 -14.109375 L -2.578125 -13.21875 L -5.71875 -9.9375 L -2.765625 -7.046875 L 0.109375 -10.109375 L 1.015625 -9.25 L -1.859375 -6.1875 L 1.34375 -3.296875 L 4.40625 -6.640625 L 5.375 -5.734375 Z M 1.265625 -1.34375 "/></g></g></g><g fill="#4c7031" fill-opacity="1"><g transform="translate(73.598726, 74.851385)"><g><path d="M 2.4375 -2.296875 L 1.34375 -1.265625 L -2.5625 -5.546875 L -7.015625 -10.203125 C -6.296875 -11.097656 -5.40625 -12.046875 -4.34375 -13.046875 C -2.445312 -14.828125 -0.628906 -14.789062 1.109375 -12.9375 C 2.484375 -11.488281 2.679688 -10.007812 1.703125 -8.5 L 1.75 -8.46875 L 7.171875 -6.75 L 5.875 -5.53125 L 0.71875 -7.34375 L -0.953125 -5.90625 Z M -1.875 -6.84375 C -0.988281 -7.519531 -0.273438 -8.109375 0.265625 -8.609375 C 0.804688 -9.117188 1.050781 -9.617188 1 -10.109375 C 0.957031 -10.609375 0.613281 -11.203125 -0.03125 -11.890625 C -0.945312 -12.859375 -1.664062 -13.285156 -2.1875 -13.171875 C -2.5 -13.109375 -2.921875 -12.828125 -3.453125 -12.328125 C -3.992188 -11.828125 -4.570312 -11.1875 -5.1875 -10.40625 Z M -1.875 -6.84375 "/></g></g></g><g fill="#4c7031" fill-opacity="1"><g transform="translate(81.548941, 67.400004)"><g><path d="M 1.28125 -1.0625 L 0.078125 -0.0625 L -5.09375 -11.671875 L -3.6875 -12.859375 L 6.796875 -5.65625 L 5.578125 -4.640625 L 2.828125 -6.609375 L -0.15625 -4.125 Z M 1.8125 -7.390625 L -3.59375 -11.390625 L -3.671875 -11.3125 L -0.75 -5.25 Z M 1.8125 -7.390625 "/></g></g></g><g fill="#4c7031" fill-opacity="1"><g transform="translate(88.278567, 61.751081)"><g><path d="M 2.703125 -1.96875 L 1.484375 -1.09375 L -1.859375 -5.8125 L -5.703125 -10.984375 C -4.878906 -11.785156 -3.882812 -12.617188 -2.71875 -13.484375 C -0.613281 -15.015625 1.191406 -14.753906 2.703125 -12.703125 C 3.878906 -11.085938 3.890625 -9.601562 2.734375 -8.25 L 2.765625 -8.203125 L 7.9375 -5.8125 L 6.515625 -4.765625 L 1.609375 -7.203125 L -0.21875 -5.96875 Z M -1.015625 -7.03125 C -0.0546875 -7.582031 0.71875 -8.078125 1.3125 -8.515625 C 1.914062 -8.953125 2.222656 -9.414062 2.234375 -9.90625 C 2.253906 -10.40625 1.984375 -11.039062 1.421875 -11.8125 C 0.640625 -12.882812 -0.0195312 -13.394531 -0.5625 -13.34375 C -0.875 -13.320312 -1.328125 -13.09375 -1.921875 -12.65625 C -2.515625 -12.226562 -3.164062 -11.664062 -3.875 -10.96875 Z M -1.015625 -7.03125 "/></g></g></g><g fill="#4c7031" fill-opacity="1"><g transform="translate(97.150844, 55.33734)"><g><path d="M -1.03125 -7.484375 L 2.796875 -1.84375 L 1.5625 -1 L -1.46875 -5.734375 L -5.1875 -11.234375 L -3.9375 -12.0625 Z M -1.03125 -7.484375 "/></g></g></g><g fill="#4c7031" fill-opacity="1"><g transform="translate(101.29721, 52.550711)"><g><path d="M 1.421875 -0.84375 L 0.078125 -0.046875 L -3.234375 -12.328125 L -1.65625 -13.265625 L 7.59375 -4.546875 L 6.21875 -3.71875 L 3.8125 -6.09375 L 0.46875 -4.109375 Z M 2.9375 -7.015625 L -1.796875 -11.796875 L -1.890625 -11.75 L 0.078125 -5.296875 Z M 2.9375 -7.015625 "/></g></g></g><g fill="#4c7031" fill-opacity="1"><g transform="translate(108.858245, 48.019421)"><g><path d="M 0.140625 -1.078125 L 0.046875 -2.390625 C 0.566406 -2.378906 1.171875 -2.441406 1.859375 -2.578125 C 2.546875 -2.722656 3.109375 -2.910156 3.546875 -3.140625 C 3.992188 -3.378906 4.289062 -3.625 4.4375 -3.875 C 4.726562 -4.394531 4.671875 -5.039062 4.265625 -5.8125 C 3.984375 -6.332031 3.601562 -6.664062 3.125 -6.8125 C 2.644531 -6.957031 2.109375 -7.003906 1.515625 -6.953125 C 0.929688 -6.910156 0.539062 -6.878906 0.34375 -6.859375 C 0.15625 -6.835938 -0.128906 -6.828125 -0.515625 -6.828125 C -0.898438 -6.835938 -1.191406 -6.878906 -1.390625 -6.953125 C -1.597656 -7.023438 -1.832031 -7.125 -2.09375 -7.25 C -2.59375 -7.476562 -3.046875 -7.976562 -3.453125 -8.75 C -3.859375 -9.519531 -3.921875 -10.316406 -3.640625 -11.140625 C -3.367188 -11.972656 -2.71875 -12.660156 -1.6875 -13.203125 C -0.894531 -13.617188 0.0078125 -13.945312 1.03125 -14.1875 L 1.40625 -12.9375 C 0.4375 -12.675781 -0.367188 -12.375 -1.015625 -12.03125 C -1.660156 -11.6875 -2.070312 -11.390625 -2.25 -11.140625 C -2.5 -10.734375 -2.445312 -10.191406 -2.09375 -9.515625 C -1.851562 -9.054688 -1.492188 -8.734375 -1.015625 -8.546875 C -0.660156 -8.421875 -0.15625 -8.378906 0.5 -8.421875 C 0.664062 -8.429688 0.96875 -8.457031 1.40625 -8.5 C 1.84375 -8.539062 2.21875 -8.554688 2.53125 -8.546875 C 2.84375 -8.535156 3.191406 -8.488281 3.578125 -8.40625 C 4.378906 -8.21875 5.03125 -7.648438 5.53125 -6.703125 C 6.03125 -5.753906 6.128906 -4.828125 5.828125 -3.921875 C 5.535156 -3.023438 4.90625 -2.320312 3.9375 -1.8125 C 3.425781 -1.539062 2.851562 -1.34375 2.21875 -1.21875 C 1.59375 -1.101562 1.09375 -1.054688 0.71875 -1.078125 Z M 0.140625 -1.078125 "/></g></g></g><g fill="#4c7031" fill-opacity="1"><g transform="translate(116.678733, 43.956093)"><g/></g></g><g fill="#4c7031" fill-opacity="1"><g transform="translate(120.04619, 42.272463)"><g><path d="M 1.109375 -12.546875 C 0.0234375 -12.085938 -0.578125 -11.664062 -0.703125 -11.28125 C -0.960938 -10.375 -0.625 -8.8125 0.3125 -6.59375 C 0.769531 -5.53125 1.25 -4.679688 1.75 -4.046875 C 2.25 -3.410156 2.691406 -3.019531 3.078125 -2.875 C 3.460938 -2.726562 3.914062 -2.765625 4.4375 -2.984375 C 4.96875 -3.210938 5.457031 -3.507812 5.90625 -3.875 C 6.363281 -4.25 6.707031 -4.578125 6.9375 -4.859375 L 7.265625 -5.265625 L 8.203125 -4.40625 C 8.128906 -4.28125 8.019531 -4.125 7.875 -3.9375 C 7.726562 -3.75 7.390625 -3.429688 6.859375 -2.984375 C 6.335938 -2.546875 5.769531 -2.195312 5.15625 -1.9375 C 2.5625 -0.832031 0.453125 -2.191406 -1.171875 -6.015625 C -2.316406 -8.710938 -2.507812 -10.707031 -1.75 -12 C -1.488281 -12.414062 -1.179688 -12.753906 -0.828125 -13.015625 C -0.472656 -13.273438 0.101562 -13.578125 0.90625 -13.921875 C 1.707031 -14.265625 2.5 -14.503906 3.28125 -14.640625 L 3.625 -13.40625 C 2.582031 -13.101562 1.742188 -12.816406 1.109375 -12.546875 Z M 1.109375 -12.546875 "/></g></g></g><g fill="#4c7031" fill-opacity="1"><g transform="translate(129.24814, 38.37384)"><g><path d="M 1.5625 -0.5625 L 0.09375 -0.03125 L -0.765625 -12.703125 L 0.96875 -13.328125 L 8.328125 -2.96875 L 6.828125 -2.4375 L 4.921875 -5.25 L 1.265625 -3.9375 Z M 4.25 -6.3125 L 0.53125 -11.921875 L 0.4375 -11.890625 L 1.109375 -5.1875 Z M 4.25 -6.3125 "/></g></g></g><g fill="#4c7031" fill-opacity="1"><g transform="translate(137.456707, 35.338812)"><g><path d="M 6.6875 -5.171875 L 5.0625 -4.71875 L 0.328125 -11.609375 L 0.21875 -11.578125 L 3.125 -0.875 L 1.71875 -0.484375 L -1.234375 -12.359375 L 0.875 -12.953125 L 5.515625 -6.046875 L 5.59375 -6.0625 L 5.953125 -14.375 L 8.0625 -14.96875 L 11.75 -3.296875 L 10.328125 -2.890625 L 7.25 -13.546875 L 7.15625 -13.53125 Z M 6.6875 -5.171875 "/></g></g></g><g fill="#4c7031" fill-opacity="1"><g transform="translate(150.626511, 31.730168)"><g><path d="M 1.8125 -0.375 L -0.65625 -12.359375 L 5.234375 -13.5625 L 5.5 -12.28125 L 1.046875 -11.421875 L 1.796875 -7.359375 L 5.90625 -8.203125 L 6.15625 -6.984375 L 2.046875 -6.140625 L 3 -1.921875 L 7.4375 -2.875 L 7.703125 -1.578125 Z M 1.8125 -0.375 "/></g></g></g><g fill="#4c7031" fill-opacity="1"><g transform="translate(159.259666, 29.962051)"><g><path d="M 1.828125 -0.28125 L -0.015625 -12.375 L 1.453125 -12.59375 L 3 -1.796875 L 7.359375 -2.5 L 7.5625 -1.15625 Z M 1.828125 -0.28125 "/></g></g></g><g fill="#4c7031" fill-opacity="1"><g transform="translate(166.843039, 28.825351)"><g><path d="M 2.46875 -7.140625 L 3.328125 -0.375 L 1.828125 -0.1875 L 1.28125 -5.78125 L 0.453125 -12.359375 L 1.953125 -12.53125 Z M 2.46875 -7.140625 "/></g></g></g><g fill="#4c7031" fill-opacity="1"><g transform="translate(171.802028, 28.220521)"><g><path d="M 1.65625 -0.109375 L 0.09375 0 L 2.6875 -12.453125 L 4.53125 -12.578125 L 8.828125 -0.609375 L 7.234375 -0.5 L 6.171875 -3.71875 L 2.296875 -3.453125 Z M 5.796875 -4.921875 L 3.734375 -11.328125 L 3.625 -11.3125 L 2.46875 -4.6875 Z M 5.796875 -4.921875 "/></g></g></g><g fill="#4c7031" fill-opacity="1"><g transform="translate(180.666328, 27.656693)"><g/></g></g><g fill="#4c7031" fill-opacity="1"><g transform="translate(184.668239, 27.530711)"><g><path d="M 0.8125 -5.140625 L 0.8125 -6.390625 L 4.84375 -6.390625 L 4.84375 -5.140625 Z M 0.8125 -5.140625 "/></g></g></g><g fill="#4c7031" fill-opacity="1"><g transform="translate(190.006653, 27.54109)"><g/></g></g><g fill="#4c7031" fill-opacity="1"><g transform="translate(193.755628, 27.555806)"><g><path d="M 7.515625 0.515625 C 7.003906 0.671875 6.410156 0.722656 5.734375 0.671875 C 5.066406 0.617188 4.488281 0.476562 4 0.25 C 3.507812 0.03125 3.070312 -0.320312 2.6875 -0.8125 C 1.863281 -1.8125 1.546875 -3.550781 1.734375 -6.03125 C 1.921875 -8.5 2.5 -10.15625 3.46875 -11 C 3.914062 -11.414062 4.398438 -11.695312 4.921875 -11.84375 C 5.441406 -12 6.035156 -12.050781 6.703125 -12 C 7.378906 -11.945312 7.957031 -11.804688 8.4375 -11.578125 C 8.925781 -11.359375 9.375 -11.003906 9.78125 -10.515625 C 10.59375 -9.535156 10.90625 -7.8125 10.71875 -5.34375 C 10.53125 -2.863281 9.957031 -1.191406 9 -0.328125 C 8.53125 0.0859375 8.035156 0.367188 7.515625 0.515625 Z M 4.875 -10.4375 C 4.46875 -10.25 4.128906 -9.796875 3.859375 -9.078125 C 3.597656 -8.367188 3.421875 -7.378906 3.328125 -6.109375 C 3.234375 -4.847656 3.210938 -3.890625 3.265625 -3.234375 C 3.316406 -2.578125 3.460938 -2.0625 3.703125 -1.6875 C 3.941406 -1.320312 4.21875 -1.070312 4.53125 -0.9375 C 4.851562 -0.8125 5.335938 -0.722656 5.984375 -0.671875 C 6.628906 -0.617188 7.15625 -0.6875 7.5625 -0.875 C 8.414062 -1.257812 8.945312 -2.769531 9.15625 -5.40625 C 9.351562 -8.0625 9.066406 -9.65625 8.296875 -10.1875 C 7.921875 -10.4375 7.359375 -10.585938 6.609375 -10.640625 C 5.859375 -10.703125 5.28125 -10.632812 4.875 -10.4375 Z M 4.875 -10.4375 "/></g></g></g><g fill="#4c7031" fill-opacity="1"><g transform="translate(204.960846, 28.41427)"><g><path d="M 7.296875 -11.546875 C 9.578125 -11.210938 10.5625 -9.96875 10.25 -7.8125 C 10.175781 -7.332031 10.046875 -6.914062 9.859375 -6.5625 C 9.671875 -6.21875 9.460938 -5.96875 9.234375 -5.8125 C 8.804688 -5.507812 8.425781 -5.347656 8.09375 -5.328125 L 7.890625 -5.328125 L 7.875 -5.28125 C 8.320312 -5.195312 8.753906 -4.941406 9.171875 -4.515625 C 9.410156 -4.296875 9.582031 -3.976562 9.6875 -3.5625 C 9.800781 -3.15625 9.8125 -2.644531 9.71875 -2.03125 C 9.632812 -1.414062 9.453125 -0.867188 9.171875 -0.390625 C 8.898438 0.0859375 8.566406 0.429688 8.171875 0.640625 C 7.429688 1.054688 6.570312 1.191406 5.59375 1.046875 C 4.59375 0.898438 3.335938 0.625 1.828125 0.21875 L 2.734375 -5.34375 L 3.59375 -11.859375 C 4.957031 -11.804688 6.191406 -11.703125 7.296875 -11.546875 Z M 3.484375 -0.609375 C 4.367188 -0.347656 5.175781 -0.164062 5.90625 -0.0625 C 6.644531 0.0390625 7.171875 -0.0820312 7.484375 -0.4375 C 7.804688 -0.789062 8.03125 -1.40625 8.15625 -2.28125 C 8.289062 -3.15625 8.191406 -3.789062 7.859375 -4.1875 C 7.535156 -4.582031 7.003906 -4.832031 6.265625 -4.9375 L 4.125 -5.25 Z M 4.296875 -6.390625 C 5.085938 -6.265625 5.835938 -6.148438 6.546875 -6.046875 C 7.265625 -5.941406 7.773438 -6.035156 8.078125 -6.328125 C 8.390625 -6.628906 8.601562 -7.179688 8.71875 -7.984375 C 8.84375 -8.796875 8.78125 -9.382812 8.53125 -9.75 C 8.28125 -10.113281 7.800781 -10.347656 7.09375 -10.453125 C 6.414062 -10.554688 5.6875 -10.617188 4.90625 -10.640625 Z M 4.296875 -6.390625 "/></g></g></g><g fill="#4c7031" fill-opacity="1"><g transform="translate(215.358649, 29.907555)"><g><path d="M 3.265625 0.703125 L 1.796875 0.390625 L 3.109375 -5.265625 L 4.40625 -11.578125 C 5.550781 -11.484375 6.835938 -11.285156 8.265625 -10.984375 C 10.804688 -10.429688 11.8125 -8.914062 11.28125 -6.4375 C 10.863281 -4.476562 9.757812 -3.476562 7.96875 -3.4375 L 7.96875 -3.375 L 9.625 2.0625 L 7.90625 1.6875 L 6.453125 -3.578125 L 4.296875 -4.140625 Z M 4.5625 -5.421875 C 5.625 -5.078125 6.515625 -4.828125 7.234375 -4.671875 C 7.960938 -4.515625 8.515625 -4.597656 8.890625 -4.921875 C 9.265625 -5.242188 9.550781 -5.867188 9.75 -6.796875 C 10.03125 -8.097656 9.976562 -8.925781 9.59375 -9.28125 C 9.363281 -9.507812 8.890625 -9.695312 8.171875 -9.84375 C 7.453125 -10 6.597656 -10.113281 5.609375 -10.1875 Z M 4.5625 -5.421875 "/></g></g></g><g fill="#4c7031" fill-opacity="1"><g transform="translate(226.008131, 32.21288)"><g><path d="M 1.59375 0.453125 L 0.09375 0.03125 L 6.71875 -10.828125 L 8.484375 -10.328125 L 8.515625 2.375 L 6.984375 1.953125 L 7.0625 -1.4375 L 3.3125 -2.484375 Z M 7.125 -2.6875 L 7.3125 -9.421875 L 7.21875 -9.453125 L 3.890625 -3.59375 Z M 7.125 -2.6875 "/></g></g></g><g fill="#4c7031" fill-opacity="1"><g transform="translate(234.499046, 34.579919)"><g><path d="M 0.890625 -0.640625 L 1.765625 -1.609375 C 2.117188 -1.222656 2.582031 -0.828125 3.15625 -0.421875 C 3.738281 -0.015625 4.265625 0.265625 4.734375 0.421875 C 5.210938 0.585938 5.59375 0.632812 5.875 0.5625 C 6.445312 0.394531 6.875 -0.09375 7.15625 -0.90625 C 7.34375 -1.46875 7.320312 -1.972656 7.09375 -2.421875 C 6.875 -2.878906 6.539062 -3.300781 6.09375 -3.6875 C 5.65625 -4.070312 5.363281 -4.328125 5.21875 -4.453125 C 5.070312 -4.585938 4.863281 -4.796875 4.59375 -5.078125 C 4.332031 -5.359375 4.160156 -5.597656 4.078125 -5.796875 C 3.992188 -5.992188 3.90625 -6.234375 3.8125 -6.515625 C 3.644531 -7.035156 3.695312 -7.707031 3.96875 -8.53125 C 4.25 -9.351562 4.785156 -9.945312 5.578125 -10.3125 C 6.367188 -10.6875 7.316406 -10.6875 8.421875 -10.3125 C 9.273438 -10.03125 10.132812 -9.597656 11 -9.015625 L 10.359375 -7.890625 C 9.492188 -8.410156 8.710938 -8.785156 8.015625 -9.015625 C 7.328125 -9.253906 6.832031 -9.347656 6.53125 -9.296875 C 6.0625 -9.203125 5.703125 -8.789062 5.453125 -8.0625 C 5.285156 -7.570312 5.300781 -7.09375 5.5 -6.625 C 5.644531 -6.28125 5.960938 -5.878906 6.453125 -5.421875 C 6.566406 -5.304688 6.789062 -5.101562 7.125 -4.8125 C 7.457031 -4.53125 7.726562 -4.273438 7.9375 -4.046875 C 8.144531 -3.816406 8.351562 -3.523438 8.5625 -3.171875 C 8.976562 -2.460938 9.015625 -1.601562 8.671875 -0.59375 C 8.328125 0.414062 7.722656 1.125 6.859375 1.53125 C 6.003906 1.9375 5.054688 1.960938 4.015625 1.609375 C 3.472656 1.421875 2.941406 1.140625 2.421875 0.765625 C 1.898438 0.390625 1.515625 0.0625 1.265625 -0.21875 Z M 0.890625 -0.640625 "/></g></g></g><g fill="#4c7031" fill-opacity="1"><g transform="translate(242.828772, 37.458039)"><g/></g></g><g fill="#4c7031" fill-opacity="1"><g transform="translate(246.379578, 38.766474)"><g><path d="M 8.921875 -2.25 L 5.171875 -3.859375 L 3.0625 1.3125 L 1.6875 0.734375 L 6.515625 -10.5 L 12.046875 -8.140625 L 11.515625 -6.921875 L 7.375 -8.75 L 5.65625 -5 L 9.421875 -3.390625 Z M 8.921875 -2.25 "/></g></g></g><g fill="#4c7031" fill-opacity="1"><g transform="translate(254.22982, 42.077941)"><g><path d="M 12.9375 -7.171875 L 14.265625 -6.5 L 11.21875 -0.453125 C 10.25 1.453125 9.285156 2.628906 8.328125 3.078125 C 7.378906 3.523438 6.296875 3.441406 5.078125 2.828125 C 3.867188 2.210938 3.160156 1.394531 2.953125 0.375 C 2.742188 -0.644531 3.101562 -2.078125 4.03125 -3.921875 L 7.15625 -10.09375 L 8.484375 -9.421875 L 5.578125 -3.671875 C 4.929688 -2.390625 4.523438 -1.429688 4.359375 -0.796875 C 4.203125 -0.160156 4.21875 0.316406 4.40625 0.640625 C 4.601562 0.972656 4.960938 1.269531 5.484375 1.53125 C 6.015625 1.800781 6.410156 1.96875 6.671875 2.03125 C 6.929688 2.09375 7.195312 2.09375 7.46875 2.03125 C 7.738281 1.96875 7.992188 1.796875 8.234375 1.515625 C 8.742188 0.929688 9.34375 -0.046875 10.03125 -1.421875 Z M 12.9375 -7.171875 "/></g></g></g><g fill="#4c7031" fill-opacity="1"><g transform="translate(264.334171, 47.161006)"><g><path d="M 7.859375 -9.546875 L 9.640625 -8.5 L 8.265625 3.328125 L 8.34375 3.375 L 13.6875 -6.078125 L 14.9375 -5.328125 L 8.65625 5.171875 L 6.875 4.109375 L 8.25 -7.703125 L 8.1875 -7.734375 L 2.828125 1.6875 L 1.578125 0.953125 Z M 7.859375 -9.546875 "/></g></g></g><g fill="#4c7031" fill-opacity="1"><g transform="translate(274.292004, 53.159567)"><g><path d="M 1.515625 1.046875 L 8.453125 -9.03125 L 13.40625 -5.625 L 12.65625 -4.546875 L 8.953125 -7.140625 L 6.546875 -3.8125 L 10 -1.421875 L 9.296875 -0.390625 L 5.84375 -2.78125 L 3.453125 0.828125 L 7.21875 3.359375 L 6.46875 4.453125 Z M 1.515625 1.046875 "/></g></g></g><g fill="#4c7031" fill-opacity="1"><g transform="translate(281.538811, 58.097397)"><g><path d="M 2.625 2.0625 L 1.453125 1.140625 L 5.109375 -3.375 L 9.03125 -8.46875 C 10.019531 -7.882812 11.085938 -7.144531 12.234375 -6.25 C 14.285156 -4.644531 14.53125 -2.84375 12.96875 -0.84375 C 11.726562 0.726562 10.296875 1.140625 8.671875 0.390625 L 8.640625 0.453125 L 7.75 6.0625 L 6.359375 4.984375 L 7.375 -0.40625 L 5.671875 -1.84375 Z M 6.484375 -2.890625 C 7.273438 -2.109375 7.960938 -1.488281 8.546875 -1.03125 C 9.128906 -0.582031 9.660156 -0.414062 10.140625 -0.53125 C 10.628906 -0.644531 11.164062 -1.078125 11.75 -1.828125 C 12.570312 -2.878906 12.890625 -3.65625 12.703125 -4.15625 C 12.585938 -4.457031 12.238281 -4.832031 11.65625 -5.28125 C 11.082031 -5.738281 10.367188 -6.207031 9.515625 -6.6875 Z M 6.484375 -2.890625 "/></g></g></g><g fill="#4c7031" fill-opacity="1"><g transform="translate(290.103536, 64.833408)"><g><path d="M 1.234375 1.09375 L 0.0625 0.0625 L 10.78125 -6.796875 L 12.15625 -5.578125 L 6.609375 5.875 L 5.421875 4.8125 L 6.96875 1.796875 L 4.046875 -0.78125 Z M 7.578125 0.6875 L 10.703125 -5.265625 L 10.625 -5.34375 L 5.078125 -1.53125 Z M 7.578125 0.6875 "/></g></g></g><g fill="#4c7031" fill-opacity="1"><g transform="translate(296.70334, 70.63347)"><g><path d="M 2.359375 2.375 L 1.296875 1.3125 L 5.484375 -2.71875 L 10 -7.296875 C 10.90625 -6.597656 11.875 -5.734375 12.90625 -4.703125 C 14.75 -2.859375 14.769531 -1.039062 12.96875 0.75 C 11.550781 2.164062 10.082031 2.40625 8.5625 1.46875 L 8.515625 1.515625 L 6.953125 6.96875 L 5.703125 5.71875 L 7.359375 0.5 L 5.875 -1.125 Z M 6.78125 -2.0625 C 7.476562 -1.195312 8.085938 -0.503906 8.609375 0.015625 C 9.128906 0.546875 9.632812 0.78125 10.125 0.71875 C 10.625 0.65625 11.210938 0.289062 11.890625 -0.375 C 12.835938 -1.320312 13.242188 -2.050781 13.109375 -2.5625 C 13.035156 -2.863281 12.738281 -3.273438 12.21875 -3.796875 C 11.695312 -4.316406 11.046875 -4.878906 10.265625 -5.484375 Z M 6.78125 -2.0625 "/></g></g></g><g fill="#4c7031" fill-opacity="1"><g transform="translate(304.381462, 78.437359)"><g><path d="M 7.25 -2.171875 L 2.234375 2.484375 L 1.21875 1.390625 L 5.4375 -2.328125 L 10.3125 -6.8125 L 11.3125 -5.703125 Z M 7.25 -2.171875 "/></g></g></g><g fill="#4c7031" fill-opacity="1"><g transform="translate(307.761466, 82.11615)"><g><path d="M 1.0625 1.28125 L 0.0625 0.078125 L 11.703125 -5.0625 L 12.875 -3.640625 L 5.640625 6.8125 L 4.625 5.59375 L 6.609375 2.84375 L 4.140625 -0.15625 Z M 7.390625 1.84375 L 11.390625 -3.546875 L 11.328125 -3.640625 L 5.25 -0.734375 Z M 7.390625 1.84375 "/></g></g></g><g fill="#4c7031" fill-opacity="1"><g transform="translate(313.379829, 88.908977)"><g><path d="M 1.09375 -0.015625 L 2.375 -0.3125 C 2.445312 0.207031 2.601562 0.796875 2.84375 1.453125 C 3.082031 2.117188 3.347656 2.648438 3.640625 3.046875 C 3.941406 3.453125 4.226562 3.703125 4.5 3.796875 C 5.0625 4.003906 5.691406 3.851562 6.390625 3.34375 C 6.859375 2.988281 7.128906 2.5625 7.203125 2.0625 C 7.273438 1.5625 7.242188 1.023438 7.109375 0.453125 C 6.984375 -0.109375 6.894531 -0.484375 6.84375 -0.671875 C 6.789062 -0.867188 6.734375 -1.15625 6.671875 -1.53125 C 6.617188 -1.914062 6.613281 -2.210938 6.65625 -2.421875 C 6.707031 -2.640625 6.773438 -2.890625 6.859375 -3.171875 C 7.003906 -3.703125 7.425781 -4.222656 8.125 -4.734375 C 8.832031 -5.253906 9.613281 -5.4375 10.46875 -5.28125 C 11.320312 -5.132812 12.097656 -4.59375 12.796875 -3.65625 C 13.328125 -2.9375 13.789062 -2.09375 14.1875 -1.125 L 13.015625 -0.578125 C 12.597656 -1.484375 12.171875 -2.234375 11.734375 -2.828125 C 11.304688 -3.421875 10.957031 -3.773438 10.6875 -3.890625 C 10.238281 -4.085938 9.707031 -3.957031 9.09375 -3.5 C 8.664062 -3.1875 8.398438 -2.78125 8.296875 -2.28125 C 8.222656 -1.925781 8.257812 -1.421875 8.40625 -0.765625 C 8.4375 -0.597656 8.503906 -0.304688 8.609375 0.109375 C 8.722656 0.523438 8.796875 0.890625 8.828125 1.203125 C 8.867188 1.515625 8.875 1.875 8.84375 2.28125 C 8.78125 3.101562 8.316406 3.832031 7.453125 4.46875 C 6.597656 5.101562 5.703125 5.335938 4.765625 5.171875 C 3.828125 5.015625 3.03125 4.5 2.375 3.625 C 2.039062 3.164062 1.765625 2.632812 1.546875 2.03125 C 1.335938 1.425781 1.207031 0.929688 1.15625 0.546875 Z M 1.09375 -0.015625 "/></g></g></g><g fill="#4c7031" fill-opacity="1"><g transform="translate(318.573849, 96.029908)"><g/></g></g><g fill="#4c7031" fill-opacity="1"><g transform="translate(320.750025, 99.100355)"><g><path d="M 12.578125 -0.8125 C 11.960938 -1.8125 11.453125 -2.335938 11.046875 -2.390625 C 10.117188 -2.503906 8.625 -1.929688 6.5625 -0.671875 C 5.582031 -0.0546875 4.8125 0.539062 4.25 1.125 C 3.695312 1.707031 3.378906 2.195312 3.296875 2.59375 C 3.210938 3 3.316406 3.445312 3.609375 3.9375 C 3.910156 4.425781 4.285156 4.863281 4.734375 5.25 C 5.179688 5.644531 5.550781 5.9375 5.84375 6.125 L 6.296875 6.390625 L 5.59375 7.453125 C 5.457031 7.390625 5.285156 7.296875 5.078125 7.171875 C 4.867188 7.054688 4.503906 6.773438 3.984375 6.328125 C 3.472656 5.878906 3.039062 5.375 2.6875 4.8125 C 1.207031 2.40625 2.234375 0.113281 5.765625 -2.0625 C 8.265625 -3.601562 10.210938 -4.097656 11.609375 -3.546875 C 12.054688 -3.347656 12.4375 -3.09375 12.75 -2.78125 C 13.0625 -2.46875 13.445312 -1.9375 13.90625 -1.1875 C 14.363281 -0.445312 14.71875 0.289062 14.96875 1.03125 L 13.796875 1.5625 C 13.347656 0.570312 12.941406 -0.21875 12.578125 -0.8125 Z M 12.578125 -0.8125 "/></g></g></g><g fill="#4c7031" fill-opacity="1"><g transform="translate(325.991843, 107.60913)"><g><path d="M 0.78125 1.453125 L 0.046875 0.078125 L 12.453125 -2.6875 L 13.328125 -1.0625 L 4.203125 7.78125 L 3.4375 6.375 L 5.9375 4.078125 L 4.078125 0.65625 Z M 6.875 3.25 L 11.859375 -1.265625 L 11.8125 -1.359375 L 5.28125 0.3125 Z M 6.875 3.25 "/></g></g></g><g fill="#4c7031" fill-opacity="1"><g transform="translate(330.228384, 115.268138)"><g><path d="M 6.140625 5.828125 L 5.4375 4.296875 L 11.53125 -1.4375 L 11.484375 -1.53125 L 1.34375 2.96875 L 0.734375 1.625 L 12.03125 -3.078125 L 12.9375 -1.09375 L 6.796875 4.546875 L 6.828125 4.625 L 15.109375 3.71875 L 16.015625 5.71875 L 5.03125 11.125 L 4.40625 9.765625 L 14.484375 5.125 L 14.453125 5.03125 Z M 6.140625 5.828125 "/></g></g></g><g fill="#4c7031" fill-opacity="1"><g transform="translate(335.785089, 127.739519)"><g><path d="M 0.640625 1.734375 L 12.109375 -2.515625 L 14.203125 3.125 L 12.984375 3.578125 L 11.4375 -0.6875 L 7.546875 0.65625 L 9 4.59375 L 7.828125 5.03125 L 6.375 1.09375 L 2.359375 2.6875 L 3.984375 6.90625 L 2.734375 7.375 Z M 0.640625 1.734375 "/></g></g></g><g fill="#4c7031" fill-opacity="1"><g transform="translate(338.834969, 136.007342)"><g><path d="M 0.546875 1.765625 L 12.21875 -1.890625 L 12.671875 -0.484375 L 2.234375 2.703125 L 3.578125 6.90625 L 2.28125 7.3125 Z M 0.546875 1.765625 "/></g></g></g><g fill="#4c7031" fill-opacity="1"><g transform="translate(341.10141, 143.333692)"><g><path d="M 7.4375 1.359375 L 0.875 3.234375 L 0.46875 1.78125 L 5.90625 0.40625 L 12.296875 -1.40625 L 12.6875 0.046875 Z M 7.4375 1.359375 "/></g></g></g><g fill="#4c7031" fill-opacity="1"><g transform="translate(342.447145, 148.144847)"><g><path d="M 0.359375 1.609375 L 0.015625 0.09375 L 12.71875 0.796875 L 13.109375 2.59375 L 1.9375 8.625 L 1.578125 7.078125 L 4.609375 5.53125 L 3.75 1.734375 Z M 5.75 5 L 11.765625 2 L 11.75 1.890625 L 5.015625 1.734375 Z M 5.75 5 "/></g></g></g><g fill="#4c7031" fill-opacity="1"><g transform="translate(344.337628, 156.827182)"><g/></g></g><g fill="#4c7031" fill-opacity="1"><g transform="translate(345.043199, 160.58418)"><g><path d="M 5.203125 0.015625 L 6.4375 -0.171875 L 7.046875 3.8125 L 5.8125 4 Z M 5.203125 0.015625 "/></g></g></g><g fill="#4c7031" fill-opacity="1"><g transform="translate(345.860659, 166.043242)"><g/></g></g><g fill="#4c7031" fill-opacity="1"><g transform="translate(346.415831, 169.74657)"><g><path d="M 0.609375 7.515625 C 0.390625 7.023438 0.253906 6.441406 0.203125 5.765625 C 0.148438 5.097656 0.195312 4.503906 0.34375 3.984375 C 0.5 3.460938 0.789062 2.976562 1.21875 2.53125 C 2.070312 1.5625 3.738281 0.988281 6.21875 0.8125 C 8.6875 0.625 10.414062 0.941406 11.40625 1.765625 C 11.882812 2.148438 12.234375 2.585938 12.453125 3.078125 C 12.679688 3.566406 12.820312 4.144531 12.875 4.8125 C 12.925781 5.488281 12.875 6.085938 12.71875 6.609375 C 12.570312 7.128906 12.289062 7.617188 11.875 8.078125 C 11.019531 9.035156 9.359375 9.609375 6.890625 9.796875 C 4.410156 9.972656 2.675781 9.65625 1.6875 8.84375 C 1.195312 8.445312 0.835938 8.003906 0.609375 7.515625 Z M 11.0625 3.25 C 10.8125 2.875 10.316406 2.609375 9.578125 2.453125 C 8.835938 2.296875 7.832031 2.265625 6.5625 2.359375 C 5.289062 2.460938 4.332031 2.585938 3.6875 2.734375 C 3.039062 2.890625 2.550781 3.113281 2.21875 3.40625 C 1.894531 3.695312 1.691406 4.007812 1.609375 4.34375 C 1.535156 4.6875 1.519531 5.179688 1.5625 5.828125 C 1.613281 6.472656 1.757812 6.976562 2 7.34375 C 2.519531 8.132812 4.097656 8.429688 6.734375 8.234375 C 9.390625 8.035156 10.921875 7.507812 11.328125 6.65625 C 11.515625 6.257812 11.578125 5.6875 11.515625 4.9375 C 11.460938 4.1875 11.3125 3.625 11.0625 3.25 Z M 11.0625 3.25 "/></g></g></g><g fill="#4c7031" fill-opacity="1"><g transform="translate(347.257318, 180.952909)"><g><path d="M 12.515625 5.46875 C 12.523438 7.769531 11.441406 8.929688 9.265625 8.953125 C 8.785156 8.953125 8.359375 8.882812 7.984375 8.75 C 7.609375 8.625 7.328125 8.460938 7.140625 8.265625 C 6.773438 7.878906 6.554688 7.523438 6.484375 7.203125 L 6.453125 7 L 6.40625 7 C 6.394531 7.445312 6.210938 7.910156 5.859375 8.390625 C 5.671875 8.648438 5.378906 8.863281 4.984375 9.03125 C 4.597656 9.207031 4.09375 9.296875 3.46875 9.296875 C 2.851562 9.304688 2.285156 9.210938 1.765625 9.015625 C 1.253906 8.816406 0.863281 8.535156 0.59375 8.171875 C 0.0703125 7.503906 -0.1875 6.675781 -0.1875 5.6875 C -0.195312 4.675781 -0.113281 3.394531 0.0625 1.84375 L 5.703125 1.890625 L 12.265625 1.75 C 12.421875 3.113281 12.503906 4.351562 12.515625 5.46875 Z M 1.140625 3.34375 C 1.015625 4.269531 0.953125 5.101562 0.953125 5.84375 C 0.960938 6.59375 1.164062 7.09375 1.5625 7.34375 C 1.957031 7.601562 2.597656 7.726562 3.484375 7.71875 C 4.367188 7.71875 4.984375 7.523438 5.328125 7.140625 C 5.671875 6.753906 5.84375 6.191406 5.84375 5.453125 L 5.828125 3.28125 Z M 6.984375 3.28125 C 6.972656 4.082031 6.96875 4.84375 6.96875 5.5625 C 6.976562 6.28125 7.148438 6.769531 7.484375 7.03125 C 7.816406 7.289062 8.390625 7.414062 9.203125 7.40625 C 10.023438 7.40625 10.597656 7.253906 10.921875 6.953125 C 11.253906 6.648438 11.421875 6.144531 11.421875 5.4375 C 11.410156 4.75 11.359375 4.019531 11.265625 3.25 Z M 6.984375 3.28125 "/></g></g></g><g fill="#4c7031" fill-opacity="1"><g transform="translate(347.349304, 191.457098)"><g><path d="M -0.203125 3.34375 L -0.109375 1.84375 L 5.671875 2.28125 L 12.109375 2.625 C 12.191406 3.769531 12.191406 5.066406 12.109375 6.515625 C 11.953125 9.117188 10.601562 10.34375 8.0625 10.1875 C 6.0625 10.070312 4.90625 9.128906 4.59375 7.359375 L 4.53125 7.359375 L -0.59375 9.828125 L -0.484375 8.0625 L 4.515625 5.84375 L 4.734375 3.640625 Z M 6.046875 3.703125 C 5.867188 4.785156 5.757812 5.695312 5.71875 6.4375 C 5.675781 7.175781 5.835938 7.710938 6.203125 8.046875 C 6.578125 8.378906 7.238281 8.570312 8.1875 8.625 C 9.519531 8.707031 10.335938 8.523438 10.640625 8.078125 C 10.816406 7.816406 10.925781 7.316406 10.96875 6.578125 C 11.019531 5.847656 11.003906 4.992188 10.921875 4.015625 Z M 6.046875 3.703125 "/></g></g></g><g fill="#4c7031" fill-opacity="1"><g transform="translate(346.67601, 202.333032)"><g><path d="M -0.203125 1.640625 L -0.015625 0.09375 L 11.71875 5 L 11.484375 6.828125 L -1.0625 8.78125 L -0.875 7.203125 L 2.46875 6.75 L 2.953125 2.890625 Z M 3.75 6.625 L 10.421875 5.8125 L 10.4375 5.703125 L 4.140625 3.3125 Z M 3.75 6.625 "/></g></g></g><g fill="#4c7031" fill-opacity="1"><g transform="translate(345.615218, 211.085542)"><g><path d="M 0.765625 0.78125 L 1.859375 1.5 C 1.523438 1.90625 1.203125 2.425781 0.890625 3.0625 C 0.585938 3.695312 0.390625 4.257812 0.296875 4.75 C 0.210938 5.25 0.226562 5.625 0.34375 5.875 C 0.570312 6.4375 1.113281 6.789062 1.96875 6.9375 C 2.550781 7.039062 3.046875 6.945312 3.453125 6.65625 C 3.867188 6.363281 4.238281 5.96875 4.5625 5.46875 C 4.882812 4.976562 5.097656 4.648438 5.203125 4.484375 C 5.304688 4.316406 5.476562 4.082031 5.71875 3.78125 C 5.957031 3.488281 6.164062 3.28125 6.34375 3.15625 C 6.53125 3.039062 6.753906 2.921875 7.015625 2.796875 C 7.503906 2.535156 8.175781 2.476562 9.03125 2.625 C 9.882812 2.78125 10.550781 3.222656 11.03125 3.953125 C 11.519531 4.679688 11.664062 5.617188 11.46875 6.765625 C 11.3125 7.648438 11.015625 8.566406 10.578125 9.515625 L 9.375 9.046875 C 9.75 8.117188 10 7.289062 10.125 6.5625 C 10.257812 5.84375 10.273438 5.34375 10.171875 5.0625 C 10.015625 4.601562 9.554688 4.304688 8.796875 4.171875 C 8.273438 4.078125 7.800781 4.164062 7.375 4.4375 C 7.050781 4.632812 6.707031 5.007812 6.34375 5.5625 C 6.25 5.695312 6.082031 5.945312 5.84375 6.3125 C 5.613281 6.6875 5.398438 6.992188 5.203125 7.234375 C 5.003906 7.472656 4.75 7.722656 4.4375 7.984375 C 3.789062 8.492188 2.941406 8.65625 1.890625 8.46875 C 0.835938 8.289062 0.046875 7.804688 -0.484375 7.015625 C -1.015625 6.222656 -1.179688 5.289062 -0.984375 4.21875 C -0.890625 3.65625 -0.691406 3.085938 -0.390625 2.515625 C -0.0976562 1.941406 0.160156 1.507812 0.390625 1.21875 Z M 0.765625 0.78125 "/></g></g></g><g fill="#4c7031" fill-opacity="1"><g transform="translate(344.023988, 219.756797)"><g/></g></g><g fill="#4c7031" fill-opacity="1"><g transform="translate(343.269066, 223.460854)"><g><path d="M 3.578125 8.484375 L 4.609375 4.53125 L -0.84375 3.21875 L -0.46875 1.78125 L 11.375 4.859375 L 9.875 10.6875 L 8.59375 10.34375 L 9.765625 5.953125 L 5.796875 4.84375 L 4.78125 8.796875 Z M 3.578125 8.484375 "/></g></g></g><g fill="#4c7031" fill-opacity="1"><g transform="translate(341.181028, 231.718911)"><g><path d="M 9.046875 11.703125 L 8.578125 13.109375 L 2.15625 11.015625 C 0.113281 10.347656 -1.195312 9.578125 -1.78125 8.703125 C -2.363281 7.828125 -2.441406 6.742188 -2.015625 5.453125 C -1.597656 4.160156 -0.90625 3.332031 0.0625 2.96875 C 1.039062 2.613281 2.507812 2.757812 4.46875 3.40625 L 11.046875 5.546875 L 10.59375 6.953125 L 4.484375 4.953125 C 3.109375 4.503906 2.09375 4.25 1.4375 4.1875 C 0.789062 4.125 0.316406 4.210938 0.015625 4.453125 C -0.273438 4.691406 -0.507812 5.09375 -0.6875 5.65625 C -0.875 6.21875 -0.976562 6.632812 -1 6.90625 C -1.019531 7.175781 -0.976562 7.4375 -0.875 7.6875 C -0.78125 7.945312 -0.570312 8.175781 -0.25 8.375 C 0.40625 8.78125 1.46875 9.222656 2.9375 9.703125 Z M 9.046875 11.703125 "/></g></g></g><g fill="#4c7031" fill-opacity="1"><g transform="translate(337.679739, 242.474739)"><g><path d="M 10.625 6.328125 L 9.84375 8.234375 L -2.046875 8.671875 L -2.078125 8.765625 L 8.0625 12.609375 L 7.515625 13.953125 L -3.8125 9.328125 L -3.03125 7.421875 L 8.84375 7 L 8.875 6.921875 L -1.25 3.046875 L -0.703125 1.703125 Z M 10.625 6.328125 "/></g></g></g><g fill="#4c7031" fill-opacity="1"><g transform="translate(333.252528, 253.222439)"><g><path d="M -0.796875 1.65625 L 10.21875 7 L 7.59375 12.421875 L 6.40625 11.84375 L 8.421875 7.78125 L 4.75 5.890625 L 2.90625 9.671875 L 1.78125 9.125 L 3.625 5.34375 L -0.296875 3.5625 L -2.234375 7.65625 L -3.421875 7.078125 Z M -0.796875 1.65625 "/></g></g></g><g fill="#4c7031" fill-opacity="1"><g transform="translate(329.463463, 261.131877)"><g><path d="M -1.640625 2.90625 L -0.90625 1.609375 L 4.09375 4.53125 L 9.734375 7.640625 C 9.304688 8.710938 8.734375 9.882812 8.015625 11.15625 C 6.742188 13.425781 5.003906 13.9375 2.796875 12.6875 C 1.046875 11.707031 0.421875 10.359375 0.921875 8.640625 L 0.859375 8.609375 L -4.828125 8.578125 L -3.96875 7.03125 L 1.5 7.234375 L 2.671875 5.34375 Z M 3.8125 5.984375 C 3.175781 6.878906 2.675781 7.648438 2.3125 8.296875 C 1.957031 8.941406 1.875 9.492188 2.0625 9.953125 C 2.25 10.410156 2.753906 10.875 3.578125 11.34375 C 4.742188 12 5.554688 12.191406 6.015625 11.921875 C 6.296875 11.765625 6.613281 11.363281 6.96875 10.71875 C 7.332031 10.082031 7.695312 9.304688 8.0625 8.390625 Z M 3.8125 5.984375 "/></g></g></g><g fill="#4c7031" fill-opacity="1"><g transform="translate(324.095776, 270.615174)"><g><path d="M -0.90625 1.390625 L -0.046875 0.078125 L 8.34375 9.625 L 7.34375 11.171875 L -4.796875 7.421875 L -3.9375 6.09375 L -0.734375 7.15625 L 1.390625 3.890625 Z M 0.46875 7.59375 L 6.828125 9.796875 L 6.890625 9.703125 L 2.28125 4.78125 Z M 0.46875 7.59375 "/></g></g></g><g fill="#4c7031" fill-opacity="1"><g transform="translate(319.357974, 278.013668)"><g><path d="M -1.984375 2.6875 L -1.09375 1.484375 L 3.5 5 L 8.71875 8.78125 C 8.164062 9.789062 7.457031 10.882812 6.59375 12.0625 C 5.050781 14.15625 3.257812 14.445312 1.21875 12.9375 C -0.394531 11.75 -0.851562 10.328125 -0.15625 8.671875 L -0.203125 8.640625 L -5.84375 7.921875 L -4.796875 6.5 L 0.609375 7.359375 L 2 5.625 Z M 3.078125 6.390625 C 2.328125 7.222656 1.726562 7.9375 1.28125 8.53125 C 0.84375 9.125 0.6875 9.65625 0.8125 10.125 C 0.945312 10.601562 1.394531 11.125 2.15625 11.6875 C 3.226562 12.476562 4.007812 12.773438 4.5 12.578125 C 4.800781 12.453125 5.171875 12.09375 5.609375 11.5 C 6.046875 10.914062 6.5 10.1875 6.96875 9.3125 Z M 3.078125 6.390625 "/></g></g></g><g fill="#4c7031" fill-opacity="1"><g transform="translate(312.801005, 286.781432)"><g><path d="M 3.21875 6.84375 L -2.109375 2.59375 L -1.1875 1.40625 L 3.109375 5.03125 L 8.296875 9.171875 L 7.359375 10.34375 Z M 3.21875 6.84375 "/></g></g></g><g fill="#4c7031" fill-opacity="1"><g transform="translate(309.673974, 290.677752)"><g><path d="M -1.109375 1.234375 L -0.0625 0.0625 L 6.765625 10.796875 L 5.53125 12.171875 L -5.890625 6.59375 L -4.828125 5.40625 L -1.8125 6.96875 L 0.78125 4.0625 Z M -0.703125 7.5625 L 5.234375 10.734375 L 5.296875 10.640625 L 1.515625 5.078125 Z M -0.703125 7.5625 "/></g></g></g><g fill="#4c7031" fill-opacity="1"><g transform="translate(303.804734, 297.258101)"><g><path d="M 0.171875 1.078125 L 0.671875 2.296875 C 0.171875 2.453125 -0.382812 2.695312 -1 3.03125 C -1.625 3.375 -2.113281 3.722656 -2.46875 4.078125 C -2.820312 4.429688 -3.023438 4.742188 -3.078125 5.015625 C -3.203125 5.609375 -2.957031 6.210938 -2.34375 6.828125 C -1.925781 7.242188 -1.460938 7.445312 -0.953125 7.4375 C -0.441406 7.4375 0.0820312 7.320312 0.625 7.09375 C 1.164062 6.875 1.523438 6.726562 1.703125 6.65625 C 1.890625 6.582031 2.164062 6.488281 2.53125 6.375 C 2.894531 6.257812 3.1875 6.207031 3.40625 6.21875 C 3.625 6.226562 3.878906 6.253906 4.171875 6.296875 C 4.710938 6.367188 5.289062 6.707031 5.90625 7.3125 C 6.519531 7.925781 6.816406 8.671875 6.796875 9.546875 C 6.785156 10.421875 6.367188 11.269531 5.546875 12.09375 C 4.910156 12.726562 4.140625 13.316406 3.234375 13.859375 L 2.53125 12.78125 C 3.363281 12.238281 4.039062 11.707031 4.5625 11.1875 C 5.082031 10.664062 5.378906 10.257812 5.453125 9.96875 C 5.585938 9.507812 5.382812 9.003906 4.84375 8.453125 C 4.46875 8.085938 4.023438 7.890625 3.515625 7.859375 C 3.148438 7.835938 2.65625 7.945312 2.03125 8.1875 C 1.863281 8.238281 1.578125 8.347656 1.171875 8.515625 C 0.773438 8.691406 0.425781 8.820312 0.125 8.90625 C -0.164062 8.988281 -0.515625 9.046875 -0.921875 9.078125 C -1.734375 9.140625 -2.519531 8.789062 -3.28125 8.03125 C -4.039062 7.28125 -4.414062 6.429688 -4.40625 5.484375 C -4.394531 4.535156 -4.003906 3.671875 -3.234375 2.890625 C -2.828125 2.484375 -2.335938 2.128906 -1.765625 1.828125 C -1.191406 1.535156 -0.722656 1.335938 -0.359375 1.234375 Z M 0.171875 1.078125 "/></g></g></g><g fill="#4c7031" fill-opacity="1"><g transform="translate(297.546289, 303.469434)"><g/></g></g><g fill="#4c7031" fill-opacity="1"><g transform="translate(294.843093, 306.079235)"><g><path d="M 2.6875 12.296875 C 3.582031 11.535156 4.03125 10.957031 4.03125 10.5625 C 4.007812 9.613281 3.21875 8.222656 1.65625 6.390625 C 0.90625 5.503906 0.195312 4.832031 -0.46875 4.375 C -1.132812 3.925781 -1.671875 3.6875 -2.078125 3.65625 C -2.484375 3.632812 -2.90625 3.804688 -3.34375 4.171875 C -3.78125 4.546875 -4.160156 4.976562 -4.484375 5.46875 C -4.804688 5.96875 -5.035156 6.378906 -5.171875 6.703125 L -5.375 7.203125 L -6.515625 6.640625 C -6.472656 6.503906 -6.410156 6.320312 -6.328125 6.09375 C -6.242188 5.875 -6.019531 5.472656 -5.65625 4.890625 C -5.289062 4.316406 -4.851562 3.816406 -4.34375 3.390625 C -2.195312 1.554688 0.21875 2.21875 2.90625 5.375 C 4.8125 7.613281 5.585938 9.46875 5.234375 10.9375 C 5.117188 11.414062 4.929688 11.832031 4.671875 12.1875 C 4.421875 12.539062 3.960938 13 3.296875 13.5625 C 2.628906 14.132812 1.9375 14.597656 1.21875 14.953125 L 0.546875 13.890625 C 1.453125 13.273438 2.164062 12.742188 2.6875 12.296875 Z M 2.6875 12.296875 "/></g></g></g><g fill="#4c7031" fill-opacity="1"><g transform="translate(287.222181, 312.544537)"><g><path d="M -1.328125 1 L -0.078125 0.0625 L 4.53125 11.90625 L 3.046875 13.015625 L -7.0625 5.328125 L -5.796875 4.359375 L -3.140625 6.484375 L -0.046875 4.140625 Z M -2.171875 7.296875 L 3.03125 11.546875 L 3.125 11.484375 L 0.5 5.28125 Z M -2.171875 7.296875 "/></g></g></g><g fill="#4c7031" fill-opacity="1"><g transform="translate(280.287951, 317.889854)"><g><path d="M -4.84375 6.9375 L -3.421875 6.03125 L 3.15625 11.1875 L 3.25 11.125 L -2.71875 1.765625 L -1.5 0.96875 L 4.859375 11.4375 L 3.03125 12.625 L -3.453125 7.40625 L -3.53125 7.453125 L -1.40625 15.5 L -3.234375 16.6875 L -10.234375 6.640625 L -8.984375 5.84375 L -2.859375 15.09375 L -2.78125 15.046875 Z M -4.84375 6.9375 "/></g></g></g><g fill="#4c7031" fill-opacity="1"><g transform="translate(268.800346, 325.260491)"><g><path d="M -1.609375 0.890625 L 4.3125 11.59375 L -0.953125 14.515625 L -1.578125 13.359375 L 2.40625 11.203125 L 0.484375 7.546875 L -3.1875 9.59375 L -3.796875 8.5 L -0.125 6.453125 L -2.28125 2.734375 L -6.234375 4.96875 L -6.875 3.8125 Z M -1.609375 0.890625 "/></g></g></g><g fill="#4c7031" fill-opacity="1"><g transform="translate(261.087026, 329.522583)"><g><path d="M -1.65625 0.8125 L 3.71875 11.8125 L 2.390625 12.46875 L -2.328125 2.609375 L -6.28125 4.578125 L -6.875 3.359375 Z M -1.65625 0.8125 "/></g></g></g><g fill="#4c7031" fill-opacity="1"><g transform="translate(254.185292, 332.869264)"><g><path d="M -0.21875 7.5625 L -3.0625 1.34375 L -1.6875 0.734375 L 0.484375 5.90625 L 3.25 11.953125 L 1.875 12.546875 Z M -0.21875 7.5625 "/></g></g></g><g fill="#4c7031" fill-opacity="1"><g transform="translate(249.632028, 334.925382)"><g><path d="M -1.546875 0.59375 L -0.09375 0.03125 L 1.125 12.6875 L -0.578125 13.359375 L -8.234375 3.203125 L -6.75 2.625 L -4.78125 5.390625 L -1.15625 3.96875 Z M -4.0625 6.421875 L -0.1875 11.9375 L -0.09375 11.890625 L -0.953125 5.21875 Z M -4.0625 6.421875 "/></g></g></g><g clip-path="url(#296bd2d832)"><g clip-path="url(#10be33c54e)"><path stroke-linecap="butt" transform="matrix(0.749552, 0, 0, 0.749552, 40.409138, 40.409133)" fill="none" stroke-linejoin="miter" d="M 196.118559 0.00136469 C 87.80383 0.00136469 0.00135868 87.803836 0.00135868 196.118565 C 0.00135868 304.428082 87.80383 392.235765 196.118559 392.235765 C 304.428076 392.235765 392.235759 304.428082 392.235759 196.118565 C 392.235759 87.803836 304.428076 0.00136469 196.118559 0.00136469 " stroke="#4c7031" stroke-width="8" stroke-opacity="1" stroke-miterlimit="4"/></g></g><g fill="#4c7031" fill-opacity="1"><g transform="translate(120.306982, 141.161899)"><g><path d="M 19.640625 -0.125 C 18.222656 0.320312 16.585938 0.546875 14.734375 0.546875 C 12.878906 0.546875 11.242188 0.320312 9.828125 -0.125 C 8.410156 -0.570312 7.097656 -1.34375 5.890625 -2.4375 C 3.367188 -4.6875 2.109375 -8.828125 2.109375 -14.859375 C 2.109375 -21.648438 3.847656 -26.140625 7.328125 -28.328125 C 9.203125 -29.535156 11.671875 -30.140625 14.734375 -30.140625 C 19.535156 -30.140625 22.929688 -28.625 24.921875 -25.59375 C 26.546875 -23.125 27.359375 -19.546875 27.359375 -14.859375 C 27.359375 -8.828125 26.097656 -4.6875 23.578125 -2.4375 C 22.367188 -1.34375 21.054688 -0.570312 19.640625 -0.125 Z M 11.390625 -23.65625 C 10.617188 -23.207031 10.019531 -22.285156 9.59375 -20.890625 C 9.175781 -19.503906 8.96875 -17.472656 8.96875 -14.796875 C 8.96875 -12.117188 9.179688 -10.078125 9.609375 -8.671875 C 10.046875 -7.265625 10.648438 -6.34375 11.421875 -5.90625 C 12.203125 -5.476562 13.304688 -5.265625 14.734375 -5.265625 C 16.160156 -5.265625 17.253906 -5.488281 18.015625 -5.9375 C 19.671875 -6.882812 20.5 -9.832031 20.5 -14.78125 C 20.5 -19.769531 19.695312 -22.726562 18.09375 -23.65625 C 17.3125 -24.101562 16.191406 -24.328125 14.734375 -24.328125 C 13.273438 -24.328125 12.160156 -24.101562 11.390625 -23.65625 Z M 11.390625 -23.65625 "/></g></g></g><g fill="#4c7031" fill-opacity="1"><g transform="translate(149.764851, 141.161899)"><g><path d="M 14.1875 -30.140625 C 20.863281 -30.140625 24.203125 -27.347656 24.203125 -21.765625 C 24.203125 -20.222656 23.863281 -18.945312 23.1875 -17.9375 C 22.519531 -16.925781 21.707031 -16.179688 20.75 -15.703125 L 20.75 -15.453125 C 23.5625 -14.273438 24.96875 -12.15625 24.96875 -9.09375 C 24.96875 -5.414062 23.859375 -2.832031 21.640625 -1.34375 C 19.703125 -0.0820312 17.316406 0.546875 14.484375 0.546875 C 11.648438 0.546875 7.988281 0.28125 3.5 -0.25 L 3.703125 -13.84375 L 3.5 -29.546875 C 7.789062 -29.941406 11.351562 -30.140625 14.1875 -30.140625 Z M 10.1875 -5.015625 C 11.875 -4.835938 13.375 -4.75 14.6875 -4.75 C 16.007812 -4.75 16.90625 -5.070312 17.375 -5.71875 C 17.851562 -6.363281 18.09375 -7.421875 18.09375 -8.890625 C 18.09375 -10.367188 17.75 -11.390625 17.0625 -11.953125 C 16.375 -12.515625 15.359375 -12.796875 14.015625 -12.796875 L 10.140625 -12.796875 Z M 10.109375 -17.9375 L 14.359375 -17.9375 C 15.535156 -17.9375 16.347656 -18.203125 16.796875 -18.734375 C 17.242188 -19.265625 17.46875 -20.175781 17.46875 -21.46875 C 17.46875 -22.757812 17.207031 -23.664062 16.6875 -24.1875 C 16.164062 -24.707031 15.289062 -24.96875 14.0625 -24.96875 L 10.109375 -24.796875 Z M 10.109375 -17.9375 "/></g></g></g><g fill="#4c7031" fill-opacity="1"><g transform="translate(177.32899, 141.161899)"><g><path d="M 25.796875 -20.296875 C 25.796875 -15.828125 23.789062 -12.878906 19.78125 -11.453125 L 19.78125 -11.203125 L 26.984375 0 L 19.328125 0 L 13.890625 -10.53125 L 10.109375 -10.609375 L 10.109375 0 L 3.5 0 L 3.65625 -13.71875 L 3.5 -29.546875 C 10.175781 -29.941406 13.90625 -30.140625 14.6875 -30.140625 C 22.09375 -30.140625 25.796875 -26.859375 25.796875 -20.296875 Z M 10.109375 -16.078125 C 12.015625 -15.878906 13.6875 -15.78125 15.125 -15.78125 C 16.570312 -15.78125 17.578125 -16.125 18.140625 -16.8125 C 18.703125 -17.5 18.984375 -18.816406 18.984375 -20.765625 C 18.984375 -22.722656 18.632812 -23.925781 17.9375 -24.375 C 17.425781 -24.707031 16.304688 -24.875 14.578125 -24.875 C 12.859375 -24.875 11.367188 -24.789062 10.109375 -24.625 Z M 10.109375 -16.078125 "/></g></g></g><g fill="#4c7031" fill-opacity="1"><g transform="translate(206.576444, 141.161899)"><g><path d="M 6.234375 0 L -0.46875 0 L 8 -29.59375 L 15.90625 -29.59375 L 24.375 0 L 17.671875 0 L 16 -6.5625 L 7.90625 -6.5625 Z M 14.734375 -12.125 L 12.078125 -23.53125 L 11.828125 -23.53125 L 9.171875 -12.125 Z M 14.734375 -12.125 "/></g></g></g><g fill="#4c7031" fill-opacity="1"><g transform="translate(230.689811, 141.161899)"><g><path d="M 11.703125 -24.328125 C 10.773438 -24.328125 10.054688 -24.148438 9.546875 -23.796875 C 9.046875 -23.453125 8.796875 -22.859375 8.796875 -22.015625 C 8.796875 -21.171875 9.148438 -20.472656 9.859375 -19.921875 C 10.578125 -19.378906 11.367188 -18.90625 12.234375 -18.5 C 13.109375 -18.09375 13.890625 -17.738281 14.578125 -17.4375 C 15.265625 -17.144531 15.789062 -16.90625 16.15625 -16.71875 C 16.53125 -16.539062 17.03125 -16.285156 17.65625 -15.953125 C 18.289062 -15.617188 18.78125 -15.300781 19.125 -15 C 19.476562 -14.707031 19.882812 -14.328125 20.34375 -13.859375 C 20.8125 -13.398438 21.160156 -12.929688 21.390625 -12.453125 C 21.972656 -11.253906 22.265625 -9.96875 22.265625 -8.59375 C 22.265625 -5.863281 21.289062 -3.65625 19.34375 -1.96875 C 17.394531 -0.289062 14.847656 0.546875 11.703125 0.546875 C 10.097656 0.546875 8.441406 0.332031 6.734375 -0.09375 C 5.023438 -0.53125 3.707031 -0.976562 2.78125 -1.4375 L 1.390625 -2.0625 C 1.441406 -2.289062 1.539062 -2.585938 1.6875 -2.953125 C 1.851562 -3.453125 2.300781 -4.910156 3.03125 -7.328125 C 6.476562 -5.953125 9.648438 -5.265625 12.546875 -5.265625 C 13.359375 -5.265625 14.054688 -5.445312 14.640625 -5.8125 C 15.234375 -6.175781 15.53125 -7.015625 15.53125 -8.328125 C 15.53125 -8.953125 15.359375 -9.425781 15.015625 -9.75 C 14.679688 -10.070312 14.398438 -10.320312 14.171875 -10.5 C 13.953125 -10.6875 13.632812 -10.890625 13.21875 -11.109375 C 12.800781 -11.335938 12.4375 -11.519531 12.125 -11.65625 C 11.476562 -11.96875 10.304688 -12.519531 8.609375 -13.3125 C 6.910156 -14.113281 5.679688 -14.828125 4.921875 -15.453125 C 2.984375 -16.960938 2.015625 -19.007812 2.015625 -21.59375 C 2.015625 -24.175781 2.921875 -26.242188 4.734375 -27.796875 C 6.546875 -29.359375 9.117188 -30.140625 12.453125 -30.140625 C 13.660156 -30.140625 14.992188 -30.023438 16.453125 -29.796875 C 17.910156 -29.578125 19.5 -29.226562 21.21875 -28.75 L 20.15625 -23.359375 C 16.789062 -24.003906 13.972656 -24.328125 11.703125 -24.328125 Z M 11.703125 -24.328125 "/></g></g></g><g fill="#4c7031" fill-opacity="1"><g transform="translate(62.591229, 199.793775)"><g><path d="M 19.90625 -17.640625 L 19.90625 -12.078125 L 9.890625 -12.078125 L 10.109375 0 L 3.5 0 L 3.5 -29.59375 L 21.25 -29.59375 L 21.25 -23.859375 L 10.015625 -24 L 9.890625 -17.640625 Z M 19.90625 -17.640625 "/></g></g></g><g fill="#4c7031" fill-opacity="1"><g transform="translate(85.189619, 199.793775)"><g><path d="M 19.453125 -29.59375 L 26.0625 -29.59375 L 26.0625 -13.34375 C 26.0625 -8.125 25.140625 -4.503906 23.296875 -2.484375 C 21.460938 -0.460938 18.628906 0.546875 14.796875 0.546875 C 10.960938 0.546875 8.117188 -0.445312 6.265625 -2.4375 C 4.421875 -4.4375 3.5 -7.957031 3.5 -13 L 3.5 -29.59375 L 10.109375 -29.59375 L 10.109375 -14.09375 C 10.109375 -11.457031 10.253906 -9.507812 10.546875 -8.25 C 10.835938 -6.988281 11.289062 -6.160156 11.90625 -5.765625 C 12.53125 -5.367188 13.492188 -5.175781 14.796875 -5.1875 C 16.097656 -5.207031 17.050781 -5.40625 17.65625 -5.78125 C 18.257812 -6.164062 18.707031 -6.972656 19 -8.203125 C 19.300781 -9.441406 19.453125 -11.40625 19.453125 -14.09375 Z M 19.453125 -29.59375 "/></g></g></g><g fill="#4c7031" fill-opacity="1"><g transform="translate(114.731645, 199.793775)"><g><path d="M 3.5 -29.59375 L 11.75 -29.59375 L 20.875 -8.59375 L 21.125 -8.59375 L 20.625 -29.59375 L 26.734375 -29.59375 L 26.734375 0 L 18.484375 0 L 9.34375 -21 L 9.09375 -21 L 9.59375 0 L 3.5 0 Z M 3.5 -29.59375 "/></g></g></g><g fill="#4c7031" fill-opacity="1"><g transform="translate(144.862827, 199.793775)"><g><path d="M 3.5 0 L 3.5 -29.59375 L 21.25 -29.59375 L 21.25 -23.953125 L 10.0625 -24.078125 L 9.890625 -17.765625 L 20.203125 -17.765625 L 20.203125 -12.203125 L 9.890625 -12.203125 L 10.0625 -5.5625 L 21.25 -5.640625 L 21.25 0 Z M 3.5 0 "/></g></g></g><g fill="#4c7031" fill-opacity="1"><g transform="translate(168.050374, 199.793775)"><g><path d="M 25.796875 -20.296875 C 25.796875 -15.828125 23.789062 -12.878906 19.78125 -11.453125 L 19.78125 -11.203125 L 26.984375 0 L 19.328125 0 L 13.890625 -10.53125 L 10.109375 -10.609375 L 10.109375 0 L 3.5 0 L 3.65625 -13.71875 L 3.5 -29.546875 C 10.175781 -29.941406 13.90625 -30.140625 14.6875 -30.140625 C 22.09375 -30.140625 25.796875 -26.859375 25.796875 -20.296875 Z M 10.109375 -16.078125 C 12.015625 -15.878906 13.6875 -15.78125 15.125 -15.78125 C 16.570312 -15.78125 17.578125 -16.125 18.140625 -16.8125 C 18.703125 -17.5 18.984375 -18.816406 18.984375 -20.765625 C 18.984375 -22.722656 18.632812 -23.925781 17.9375 -24.375 C 17.425781 -24.707031 16.304688 -24.875 14.578125 -24.875 C 12.859375 -24.875 11.367188 -24.789062 10.109375 -24.625 Z M 10.109375 -16.078125 "/></g></g></g><g fill="#4c7031" fill-opacity="1"><g transform="translate(197.297828, 199.793775)"><g><path d="M 6.234375 0 L -0.46875 0 L 8 -29.59375 L 15.90625 -29.59375 L 24.375 0 L 17.671875 0 L 16 -6.5625 L 7.90625 -6.5625 Z M 14.734375 -12.125 L 12.078125 -23.53125 L 11.828125 -23.53125 L 9.171875 -12.125 Z M 14.734375 -12.125 "/></g></g></g><g fill="#4c7031" fill-opacity="1"><g transform="translate(221.411195, 199.793775)"><g><path d="M 25.796875 -20.296875 C 25.796875 -15.828125 23.789062 -12.878906 19.78125 -11.453125 L 19.78125 -11.203125 L 26.984375 0 L 19.328125 0 L 13.890625 -10.53125 L 10.109375 -10.609375 L 10.109375 0 L 3.5 0 L 3.65625 -13.71875 L 3.5 -29.546875 C 10.175781 -29.941406 13.90625 -30.140625 14.6875 -30.140625 C 22.09375 -30.140625 25.796875 -26.859375 25.796875 -20.296875 Z M 10.109375 -16.078125 C 12.015625 -15.878906 13.6875 -15.78125 15.125 -15.78125 C 16.570312 -15.78125 17.578125 -16.125 18.140625 -16.8125 C 18.703125 -17.5 18.984375 -18.816406 18.984375 -20.765625 C 18.984375 -22.722656 18.632812 -23.925781 17.9375 -24.375 C 17.425781 -24.707031 16.304688 -24.875 14.578125 -24.875 C 12.859375 -24.875 11.367188 -24.789062 10.109375 -24.625 Z M 10.109375 -16.078125 "/></g></g></g><g fill="#4c7031" fill-opacity="1"><g transform="translate(250.658649, 199.793775)"><g><path d="M 10.015625 -16.421875 L 10.140625 0 L 3.5 0 L 3.65625 -13.640625 L 3.5 -29.59375 L 10.140625 -29.59375 Z M 10.015625 -16.421875 "/></g></g></g><g fill="#4c7031" fill-opacity="1"><g transform="translate(264.293425, 199.793775)"><g><path d="M 6.234375 0 L -0.46875 0 L 8 -29.59375 L 15.90625 -29.59375 L 24.375 0 L 17.671875 0 L 16 -6.5625 L 7.90625 -6.5625 Z M 14.734375 -12.125 L 12.078125 -23.53125 L 11.828125 -23.53125 L 9.171875 -12.125 Z M 14.734375 -12.125 "/></g></g></g><g fill="#4c7031" fill-opacity="1"><g transform="translate(288.406792, 199.793775)"><g><path d="M 11.703125 -24.328125 C 10.773438 -24.328125 10.054688 -24.148438 9.546875 -23.796875 C 9.046875 -23.453125 8.796875 -22.859375 8.796875 -22.015625 C 8.796875 -21.171875 9.148438 -20.472656 9.859375 -19.921875 C 10.578125 -19.378906 11.367188 -18.90625 12.234375 -18.5 C 13.109375 -18.09375 13.890625 -17.738281 14.578125 -17.4375 C 15.265625 -17.144531 15.789062 -16.90625 16.15625 -16.71875 C 16.53125 -16.539062 17.03125 -16.285156 17.65625 -15.953125 C 18.289062 -15.617188 18.78125 -15.300781 19.125 -15 C 19.476562 -14.707031 19.882812 -14.328125 20.34375 -13.859375 C 20.8125 -13.398438 21.160156 -12.929688 21.390625 -12.453125 C 21.972656 -11.253906 22.265625 -9.96875 22.265625 -8.59375 C 22.265625 -5.863281 21.289062 -3.65625 19.34375 -1.96875 C 17.394531 -0.289062 14.847656 0.546875 11.703125 0.546875 C 10.097656 0.546875 8.441406 0.332031 6.734375 -0.09375 C 5.023438 -0.53125 3.707031 -0.976562 2.78125 -1.4375 L 1.390625 -2.0625 C 1.441406 -2.289062 1.539062 -2.585938 1.6875 -2.953125 C 1.851562 -3.453125 2.300781 -4.910156 3.03125 -7.328125 C 6.476562 -5.953125 9.648438 -5.265625 12.546875 -5.265625 C 13.359375 -5.265625 14.054688 -5.445312 14.640625 -5.8125 C 15.234375 -6.175781 15.53125 -7.015625 15.53125 -8.328125 C 15.53125 -8.953125 15.359375 -9.425781 15.015625 -9.75 C 14.679688 -10.070312 14.398438 -10.320312 14.171875 -10.5 C 13.953125 -10.6875 13.632812 -10.890625 13.21875 -11.109375 C 12.800781 -11.335938 12.4375 -11.519531 12.125 -11.65625 C 11.476562 -11.96875 10.304688 -12.519531 8.609375 -13.3125 C 6.910156 -14.113281 5.679688 -14.828125 4.921875 -15.453125 C 2.984375 -16.960938 2.015625 -19.007812 2.015625 -21.59375 C 2.015625 -24.175781 2.921875 -26.242188 4.734375 -27.796875 C 6.546875 -29.359375 9.117188 -30.140625 12.453125 -30.140625 C 13.660156 -30.140625 14.992188 -30.023438 16.453125 -29.796875 C 17.910156 -29.578125 19.5 -29.226562 21.21875 -28.75 L 20.15625 -23.359375 C 16.789062 -24.003906 13.972656 -24.328125 11.703125 -24.328125 Z M 11.703125 -24.328125 "/></g></g></g><g fill="#4c7031" fill-opacity="1"><g transform="translate(104.067962, 258.425651)"><g><path d="M 22.640625 -23.703125 C 19.160156 -24.117188 16.492188 -24.328125 14.640625 -24.328125 C 12.796875 -24.328125 11.550781 -24.078125 10.90625 -23.578125 C 9.644531 -22.566406 9.015625 -19.503906 9.015625 -14.390625 C 9.015625 -12.066406 9.21875 -10.160156 9.625 -8.671875 C 10.03125 -7.179688 10.53125 -6.210938 11.125 -5.765625 C 11.726562 -5.316406 12.625 -5.09375 13.8125 -5.09375 C 15.007812 -5.09375 16.320312 -5.28125 17.75 -5.65625 C 19.1875 -6.039062 20.816406 -6.597656 22.640625 -7.328125 L 24.546875 -2.359375 C 24.203125 -2.128906 23.722656 -1.851562 23.109375 -1.53125 C 22.492188 -1.207031 21.273438 -0.78125 19.453125 -0.25 C 17.628906 0.28125 15.832031 0.546875 14.0625 0.546875 C 10.300781 0.546875 7.367188 -0.65625 5.265625 -3.0625 C 3.160156 -5.476562 2.109375 -9.296875 2.109375 -14.515625 C 2.109375 -19.460938 2.894531 -23.15625 4.46875 -25.59375 C 5.195312 -26.738281 6.113281 -27.65625 7.21875 -28.34375 C 8.320312 -29.03125 9.46875 -29.5 10.65625 -29.75 C 11.851562 -30.007812 13.113281 -30.140625 14.4375 -30.140625 C 15.757812 -30.140625 17.3125 -30.03125 19.09375 -29.8125 C 20.875 -29.601562 22.296875 -29.363281 23.359375 -29.09375 Z M 22.640625 -23.703125 "/></g></g></g><g fill="#4c7031" fill-opacity="1"><g transform="translate(130.075046, 258.425651)"><g><path d="M 6.234375 0 L -0.46875 0 L 8 -29.59375 L 15.90625 -29.59375 L 24.375 0 L 17.671875 0 L 16 -6.5625 L 7.90625 -6.5625 Z M 14.734375 -12.125 L 12.078125 -23.53125 L 11.828125 -23.53125 L 9.171875 -12.125 Z M 14.734375 -12.125 "/></g></g></g><g fill="#4c7031" fill-opacity="1"><g transform="translate(154.188413, 258.425651)"><g><path d="M 21.09375 -6.8125 L 14.4375 -6.8125 L 9.890625 -22.1875 L 9.640625 -22.1875 L 9.890625 0 L 3.328125 0 L 4.328125 -29.59375 L 12.796875 -29.59375 L 17.59375 -13.046875 L 17.84375 -13.046875 L 22.609375 -29.59375 L 31.015625 -29.59375 L 32.15625 0 L 25.59375 0 L 25.765625 -22.1875 L 25.515625 -22.1875 Z M 21.09375 -6.8125 "/></g></g></g><g fill="#4c7031" fill-opacity="1"><g transform="translate(189.664098, 258.425651)"><g><path d="M 3.5 0 L 3.5 -29.59375 L 21.25 -29.59375 L 21.25 -23.953125 L 10.0625 -24.078125 L 9.890625 -17.765625 L 20.203125 -17.765625 L 20.203125 -12.203125 L 9.890625 -12.203125 L 10.0625 -5.5625 L 21.25 -5.640625 L 21.25 0 Z M 3.5 0 "/></g></g></g><g fill="#4c7031" fill-opacity="1"><g transform="translate(212.851645, 258.425651)"><g><path d="M 3.5 0 L 3.5 -29.59375 L 10.109375 -29.59375 L 9.890625 -5.6875 L 20.796875 -5.765625 L 20.796875 0 Z M 3.5 0 "/></g></g></g><g fill="#4c7031" fill-opacity="1"><g transform="translate(233.177578, 258.425651)"><g><path d="M 10.015625 -16.421875 L 10.140625 0 L 3.5 0 L 3.65625 -13.640625 L 3.5 -29.59375 L 10.140625 -29.59375 Z M 10.015625 -16.421875 "/></g></g></g><g fill="#4c7031" fill-opacity="1"><g transform="translate(246.812354, 258.425651)"><g><path d="M 6.234375 0 L -0.46875 0 L 8 -29.59375 L 15.90625 -29.59375 L 24.375 0 L 17.671875 0 L 16 -6.5625 L 7.90625 -6.5625 Z M 14.734375 -12.125 L 12.078125 -23.53125 L 11.828125 -23.53125 L 9.171875 -12.125 Z M 14.734375 -12.125 "/></g></g></g></svg>